<svg width="80" height="80" viewBox="0 0 80 80" fill="none" xmlns="http://www.w3.org/2000/svg">
<path d="M48.2871 4.41016C47.8548 11.822 46.9903 21.4383 45.6719 32.7832C53.538 28.8723 62.7009 24.939 72.749 21.8701L78 38.0342C68.3838 41.103 58.7894 43.2853 49.6055 44.582C53.5385 48.0825 60.0862 55.5164 68.8164 65.9971L54.8564 75.5908C50.4697 69.4758 45.2405 61.1778 39.125 50.6973C33.4421 61.6316 28.6444 69.9295 24.2793 75.5908L10.7305 65.9971C19.4606 55.0628 26.0293 47.6504 29.9404 44.1494C19.9141 42.3989 10.7301 40.2171 2 37.6025L7.22949 21.4385C19.4604 25.8036 28.2124 29.3044 33.874 32.7832C32.5775 18.8237 31.6914 9.20736 31.6914 4.41016H48.2871Z" fill="url(#paint0_linear_1673_9109)"/>
<defs>
<linearGradient id="paint0_linear_1673_9109" x1="2" y1="40.0005" x2="78" y2="40.0005" gradientUnits="userSpaceOnUse">
<stop stop-color="#386BB7"/>
<stop offset="1" stop-color="#E24C4A"/>
</linearGradient>
</defs>
</svg>
