<svg width="140" height="140" viewBox="0 0 140 140" fill="none" xmlns="http://www.w3.org/2000/svg">
<circle cx="70" cy="70" r="70" fill="url(#paint0_linear_1681_14288)"/>
<path fill-rule="evenodd" clip-rule="evenodd" d="M77.6156 59.6905C74.8222 62.4839 69.7315 62.4851 66.937 59.6905L65.7912 58.5447L63.4997 60.8363L64.6454 61.9821C66.678 64.0147 69.476 65.0298 72.2752 65.031L58.1374 79.1687L60.429 81.4602L74.5667 67.3225C74.5678 70.1217 75.583 72.9196 77.6156 74.9522L78.7614 76.098L81.0529 73.8065L79.9072 72.6607C77.1126 69.8661 77.1138 64.7755 79.9072 61.9821L81.0529 60.8363L78.7614 58.5447L77.6156 59.6905Z" fill="white"/>
<path d="M75.605 23.3858C74.667 23.2693 73.8816 23.0082 73.2488 22.6025C72.6173 22.1873 72.1213 21.688 71.7608 21.1044C71.4015 20.5113 71.1559 19.8939 71.0239 19.2522C70.9026 18.6021 70.8784 17.9833 70.9514 17.3958L70.9902 17.0832C71.0702 16.4389 71.2533 15.817 71.5394 15.2175C71.8267 14.6085 72.2153 14.0747 72.7053 13.616C73.2047 13.1585 73.8001 12.8187 74.4916 12.5967C75.1937 12.3664 75.9948 12.3071 76.8949 12.4189C77.833 12.5354 78.6403 12.8137 79.3169 13.2537C79.9934 13.6937 80.5061 14.2529 80.8548 14.9312C81.2142 15.6013 81.38 16.3579 81.3522 17.2011L79.0071 16.9099C78.9925 16.4847 78.8851 16.1106 78.6847 15.7874C78.4843 15.4643 78.2046 15.1986 77.8456 14.9905C77.496 14.7835 77.0891 14.6512 76.6248 14.5935C76.1606 14.5358 75.7384 14.5652 75.3583 14.6815C74.9783 14.7979 74.6468 14.9877 74.364 15.2508C74.0906 15.5151 73.8623 15.8427 73.679 16.2337C73.5064 16.6163 73.3895 17.054 73.3283 17.5467C73.2683 18.03 73.2746 18.483 73.3472 18.9057C73.4304 19.3201 73.5764 19.6942 73.7851 20.0281C74.0044 20.3536 74.2889 20.6198 74.6384 20.8268C74.9891 21.0243 75.4013 21.1524 75.8751 21.2113C76.5952 21.3007 77.2234 21.2007 77.7596 20.9114C78.3054 20.6231 78.6686 20.1776 78.8493 19.5746L81.1802 19.8641C81.0008 20.6115 80.6585 21.2762 80.1532 21.8581C79.6587 22.4317 79.023 22.8626 78.2464 23.151C77.4804 23.4311 76.5999 23.5094 75.605 23.3858Z" fill="white"/>
<path d="M85.9478 25.9347C85.3029 25.6966 84.766 25.3864 84.3372 25.0042C83.9116 24.613 83.5887 24.1782 83.3684 23.6999C83.157 23.2249 83.0444 22.7304 83.0306 22.2164C83.0201 21.6935 83.1074 21.1812 83.2926 20.6796L83.4067 20.3706C83.5952 19.8601 83.8634 19.4095 84.2112 19.0188C84.5712 18.6225 84.9904 18.3141 85.4687 18.0938C85.956 17.8767 86.4868 17.7623 87.0611 17.7504C87.6388 17.7296 88.2366 17.8333 88.8546 18.0615C89.4906 18.2963 90.0169 18.6076 90.4334 18.9955C90.8623 19.3777 91.1869 19.808 91.4072 20.2863C91.6276 20.7646 91.7458 21.2714 91.7619 21.8066C91.7814 22.3328 91.6969 22.8512 91.5084 23.3618L91.3943 23.6708C91.2091 24.1724 90.9426 24.6185 90.5948 25.0092C90.2503 25.3909 89.8389 25.6919 89.3606 25.9123C88.8913 26.1359 88.3678 26.2582 87.7901 26.279C87.2158 26.2909 86.6017 26.1761 85.9478 25.9347ZM86.6175 24.1209C87.0384 24.2763 87.4208 24.3157 87.7646 24.2391C88.1085 24.1625 88.4115 23.9894 88.6739 23.7198C88.9452 23.4536 89.1536 23.1234 89.2991 22.7293C89.4546 22.3084 89.514 21.913 89.4775 21.5433C89.4443 21.1646 89.3191 20.8283 89.1019 20.5344C88.8937 20.2438 88.588 20.0241 88.185 19.8753C87.7909 19.7298 87.4158 19.6981 87.0597 19.7804C86.7036 19.8627 86.3899 20.0369 86.1186 20.3032C85.8596 20.5638 85.6523 20.9045 85.4969 21.3255C85.3514 21.7196 85.2908 22.1044 85.315 22.4797C85.3393 22.8551 85.4617 23.1853 85.6821 23.4702C85.9026 23.7552 86.2144 23.9721 86.6175 24.1209Z" fill="white"/>
<path d="M91.8356 28.1261L96.0007 21.4739L97.5423 22.4392L95.7562 25.2918L95.647 25.2234C96.0726 24.5437 96.5122 24.0304 96.9659 23.6836C97.4277 23.3419 97.9076 23.1692 98.4056 23.1656C98.9035 23.1619 99.4074 23.3197 99.9172 23.6389L100.002 23.6921C100.779 24.1785 101.21 24.8033 101.296 25.5665C101.394 26.3267 101.122 27.2206 100.478 28.2484L98.0993 32.0479L96.1571 30.8318L98.6044 26.9231C98.8274 26.567 98.9046 26.2098 98.8361 25.8515C98.7675 25.4931 98.5552 25.2025 98.1991 24.9796C97.835 24.7515 97.4661 24.6839 97.0926 24.7768C96.7322 24.8665 96.4355 25.0976 96.2024 25.4698L93.7779 29.3421L91.8356 28.1261Z" fill="white"/>
<path d="M102.314 35.8846C101.721 35.3593 101.305 34.8638 101.067 34.398C100.836 33.9251 100.786 33.4411 100.918 32.9461C101.064 32.4502 101.399 31.9056 101.925 31.3122L106.5 26.1434L108.098 27.5579L103.465 32.7911C103.219 33.0699 103.1 33.3476 103.11 33.6243C103.134 33.9002 103.281 34.1584 103.553 34.3989L104.422 35.1679L103.14 36.6156L102.314 35.8846ZM103.095 28.1972L104.205 26.9426L108.409 30.664L107.298 31.9186L103.095 28.1972Z" fill="white"/>
<path d="M107.456 41.4168L109.243 39.9373L108.996 39.6394L110.938 38.0321C111.247 37.7764 111.418 37.5111 111.45 37.2361C111.483 36.9612 111.366 36.6619 111.098 36.3383C110.964 36.1765 110.783 35.9662 110.557 35.7075C110.33 35.4488 110.094 35.1858 109.848 34.9185C109.602 34.6512 109.377 34.4096 109.174 34.1938L110.663 32.9609C110.818 33.1179 110.997 33.3043 111.2 33.5201C111.404 33.736 111.61 33.9622 111.818 34.1988C112.026 34.4354 112.219 34.6604 112.395 34.8737C112.907 35.4915 113.248 36.0831 113.418 36.6485C113.595 37.2212 113.594 37.767 113.416 38.286C113.246 38.7989 112.881 39.2867 112.322 39.7494L108.615 42.8179L107.456 41.4168ZM105.703 39.6139C105.344 39.18 105.104 38.7336 104.985 38.2747C104.871 37.8233 104.882 37.3869 105.017 36.9656C105.159 36.5381 105.432 36.157 105.836 35.8222C106.278 35.4569 106.733 35.2725 107.201 35.2692C107.676 35.2598 108.151 35.4062 108.624 35.7085C109.105 36.0047 109.567 36.4212 110.012 36.9582L111.08 38.249L110.098 39.0618L109.021 37.7599C108.765 37.451 108.49 37.2759 108.196 37.2346C107.914 37.1945 107.645 37.2811 107.388 37.4941C107.145 37.6951 107.013 37.9404 106.993 38.23C106.986 38.5209 107.11 38.8209 107.366 39.1298C107.53 39.3284 107.71 39.4775 107.904 39.5772C108.111 39.6781 108.342 39.71 108.596 39.673C108.851 39.6359 109.135 39.4999 109.449 39.265L109.354 40.0495C108.905 40.3598 108.466 40.5491 108.039 40.6173C107.619 40.693 107.209 40.6476 106.811 40.4813C106.419 40.3223 106.05 40.0332 105.703 39.6139Z" fill="white"/>
<path d="M111.246 47.7455C110.916 47.1532 110.724 46.5825 110.67 46.0336C110.629 45.4883 110.694 44.9768 110.865 44.4991C111.036 44.0213 111.291 43.5955 111.629 43.2215C111.975 42.8428 112.374 42.5282 112.824 42.2774L113.062 42.1451C113.529 41.8851 114.018 41.7118 114.527 41.6251C115.044 41.5339 115.551 41.5414 116.047 41.6477C116.543 41.7539 117.008 41.9706 117.442 42.2976C117.879 42.633 118.256 43.0844 118.572 43.6517C118.916 44.2691 119.099 44.8829 119.122 45.4931C119.153 46.0986 119.034 46.6616 118.767 47.1821C118.499 47.7026 118.099 48.1327 117.567 48.4725L116.474 46.5078C116.764 46.3026 116.953 46.0335 117.041 45.7005C117.141 45.3712 117.08 45.0063 116.858 44.6059C116.672 44.2721 116.433 44.0391 116.141 43.9067C115.853 43.7826 115.533 43.7476 115.181 43.8017C114.828 43.8557 114.452 43.9942 114.051 44.2171C113.684 44.4214 113.379 44.6572 113.134 44.9244C112.898 45.187 112.756 45.4733 112.71 45.783C112.677 46.0965 112.76 46.4326 112.96 46.7914C113.109 47.0584 113.28 47.2581 113.474 47.3905C113.681 47.5267 113.898 47.6026 114.125 47.6182C114.365 47.6375 114.605 47.597 114.844 47.4966L115.931 49.4489C115.349 49.7396 114.761 49.8597 114.164 49.8091C113.576 49.7539 113.027 49.5517 112.515 49.2024C112.012 48.8486 111.589 48.3629 111.246 47.7455Z" fill="white"/>
<path d="M115.003 55.934C114.734 55.1886 114.606 54.5544 114.621 54.0315C114.644 53.5054 114.832 53.0569 115.186 52.6858C115.551 52.3204 116.107 52.0033 116.852 51.7343L123.346 49.3916L124.07 51.399L117.496 53.7708C117.145 53.8972 116.908 54.0842 116.785 54.3319C116.673 54.5853 116.679 54.8827 116.802 55.224L117.196 56.3152L115.377 56.9714L115.003 55.934ZM119.372 49.5614L120.949 48.9928L122.854 54.2738L121.278 54.8425L119.372 49.5614Z" fill="white"/>
<path d="M116.951 66.5287C116.867 65.5488 116.977 64.701 117.28 63.9852C117.594 63.2781 118.073 62.7198 118.719 62.3102C119.364 61.9006 120.148 61.6564 121.071 61.5777L127.25 61.0508L127.45 63.3911L121.185 63.9253C120.728 63.9643 120.336 64.084 120.008 64.2844C119.691 64.4936 119.455 64.7676 119.302 65.1064C119.15 65.4548 119.094 65.8669 119.134 66.3425C119.176 66.8277 119.301 67.2243 119.509 67.5324C119.718 67.8499 119.996 68.0801 120.344 68.223C120.692 68.3658 121.098 68.4174 121.565 68.3776L127.829 67.8434L128.029 70.1837L121.85 70.7106C120.927 70.7893 120.113 70.6815 119.407 70.3871C118.702 70.0927 118.135 69.6236 117.706 68.9798C117.287 68.3351 117.035 67.5181 116.951 66.5287Z" fill="white"/>
<path d="M116.788 76.7429C116.923 75.634 117.255 74.7944 117.787 74.2241C118.318 73.6539 118.998 73.4 119.827 73.4623L119.581 75.4812C119.33 75.4891 119.09 75.6089 118.86 75.8406C118.638 76.083 118.495 76.4648 118.432 76.9861C118.383 77.3842 118.41 77.7193 118.511 77.9913C118.621 78.274 118.804 78.4309 119.06 78.462C119.288 78.4897 119.48 78.412 119.637 78.2291C119.803 78.0474 119.946 77.704 120.065 77.1991L120.196 76.5947C120.405 75.6679 120.752 74.9935 121.236 74.5714C121.719 74.1589 122.292 73.9929 122.955 74.0736C123.505 74.1404 123.948 74.3338 124.284 74.6536C124.621 74.9734 124.854 75.3865 124.985 75.893C125.115 76.4089 125.141 76.9796 125.065 77.6052C124.943 78.6099 124.622 79.3932 124.101 79.9551C123.59 80.5182 122.916 80.7632 122.079 80.6902L122.324 78.6713C122.585 78.6646 122.814 78.5578 123.012 78.3511C123.22 78.1455 123.351 77.82 123.405 77.3745C123.448 77.0238 123.416 76.7361 123.308 76.5115C123.201 76.2868 123.033 76.1606 122.806 76.133C122.588 76.1065 122.411 76.1763 122.276 76.3426C122.14 76.5089 122.024 76.7929 121.927 77.1947L121.795 77.7991C121.575 78.7437 121.219 79.4555 120.728 79.9344C120.237 80.4133 119.631 80.609 118.911 80.5214C118.389 80.458 117.952 80.2605 117.598 79.9289C117.253 79.5985 117.008 79.1599 116.863 78.6132C116.728 78.0677 116.702 77.4443 116.788 76.7429Z" fill="white"/>
<path d="M118.152 92.2406L120.414 90.7743L121.939 91.357L122.647 93.9579L120.923 94.2189L120.877 92.3311L120.556 92.2084L119.277 93.5902L118.152 92.2406ZM124.516 92.4792L122.116 91.2558L121.859 89.64L123.755 87.7273L124.83 89.0883L123.228 90.0708L123.281 90.4131L125.112 90.8368L124.516 92.4792ZM121.494 86.8635L121.632 89.5531L120.363 90.5863L117.759 89.8981L118.396 88.271L120.043 89.1762L120.311 88.9566L119.767 87.1697L121.494 86.8635Z" fill="white"/>
<path d="M107.29 99.7758C107.861 99.0225 108.48 98.4738 109.149 98.1297C109.824 97.7913 110.505 97.6124 111.191 97.593C111.884 97.5794 112.541 97.6763 113.163 97.8839C113.786 98.1048 114.334 98.394 114.805 98.7516L115.057 98.942C115.574 99.3342 116.02 99.8043 116.396 100.352C116.779 100.906 117.046 101.51 117.197 102.164C117.343 102.825 117.338 103.511 117.184 104.221C117.031 104.944 116.681 105.666 116.133 106.389C115.562 107.143 114.916 107.702 114.196 108.067C113.476 108.431 112.736 108.595 111.974 108.556C111.214 108.531 110.476 108.296 109.76 107.849L111.188 105.966C111.563 106.166 111.941 106.261 112.321 106.249C112.701 106.238 113.071 106.129 113.431 105.923C113.785 105.724 114.104 105.438 114.386 105.066C114.669 104.693 114.855 104.313 114.945 103.926C115.035 103.538 115.037 103.156 114.951 102.78C114.859 102.411 114.69 102.049 114.444 101.694C114.199 101.353 113.879 101.033 113.483 100.733C113.095 100.439 112.7 100.217 112.298 100.068C111.898 99.9321 111.501 99.8709 111.107 99.8842C110.716 99.9108 110.343 100.023 109.989 100.222C109.642 100.427 109.324 100.719 109.036 101.1C108.598 101.678 108.369 102.271 108.351 102.881C108.327 103.497 108.53 104.035 108.961 104.493L107.542 106.365C106.986 105.835 106.582 105.206 106.332 104.477C106.083 103.762 106.029 102.996 106.169 102.179C106.31 101.376 106.684 100.575 107.29 99.7758Z" fill="white"/>
<path d="M99.8979 107.461C100.426 107.021 100.963 106.711 101.508 106.53C102.06 106.357 102.598 106.294 103.122 106.342C103.639 106.396 104.124 106.545 104.576 106.79C105.034 107.042 105.435 107.374 105.777 107.784L105.988 108.038C106.336 108.456 106.592 108.913 106.757 109.41C106.921 109.919 106.979 110.437 106.931 110.961C106.876 111.492 106.71 112.009 106.433 112.512C106.163 113.023 105.774 113.489 105.268 113.911C104.747 114.345 104.215 114.645 103.671 114.812C103.125 114.993 102.59 115.059 102.066 115.012C101.542 114.964 101.043 114.813 100.572 114.56C100.106 114.314 99.6991 113.982 99.3508 113.564L99.1401 113.311C98.7979 112.9 98.5444 112.446 98.3796 111.95C98.2209 111.461 98.1654 110.954 98.2133 110.429C98.2539 109.911 98.4094 109.396 98.6797 108.886C98.9562 108.382 99.3623 107.907 99.8979 107.461ZM101.135 108.947C100.79 109.234 100.565 109.546 100.46 109.882C100.355 110.218 100.353 110.567 100.456 110.929C100.551 111.297 100.733 111.642 101.002 111.965C101.289 112.31 101.602 112.559 101.94 112.712C102.285 112.872 102.639 112.932 103.002 112.89C103.358 112.855 103.701 112.7 104.031 112.425C104.354 112.156 104.569 111.847 104.675 111.497C104.782 111.148 104.787 110.789 104.692 110.421C104.596 110.066 104.404 109.717 104.117 109.372C103.848 109.049 103.545 108.804 103.207 108.638C102.87 108.472 102.523 108.413 102.166 108.461C101.809 108.51 101.465 108.672 101.135 108.947Z" fill="white"/>
<path d="M95.0638 111.472L98.7556 118.398L97.1505 119.254L95.5673 116.284L95.6811 116.223C96.0583 116.931 96.2843 117.568 96.3588 118.134C96.425 118.705 96.3355 119.207 96.0906 119.64C95.8456 120.074 95.4577 120.432 94.9269 120.715L94.8384 120.762C94.0295 121.193 93.273 121.256 92.5687 120.95C91.8606 120.656 91.2213 119.975 90.6509 118.905L88.5423 114.949L90.5644 113.871L92.7337 117.94C92.9313 118.311 93.2025 118.556 93.5474 118.675C93.8922 118.794 94.25 118.755 94.6207 118.558C94.9999 118.355 95.2423 118.069 95.348 117.699C95.4497 117.342 95.3973 116.97 95.1907 116.582L93.0416 112.55L95.0638 111.472Z" fill="white"/>
<path d="M83.1169 116.684C83.8684 116.432 84.5053 116.32 85.0277 116.346C85.5531 116.382 85.9972 116.58 86.36 116.942C86.7168 117.316 87.021 117.879 87.2727 118.63L89.4646 125.176L87.441 125.854L85.2218 119.226C85.1036 118.873 84.9221 118.632 84.6774 118.502C84.4266 118.385 84.1292 118.384 83.7851 118.499L82.6851 118.868L82.0712 117.034L83.1169 116.684ZM89.3867 121.2L89.9188 122.789L84.5951 124.571L84.063 122.983L89.3867 121.2Z" fill="white"/>
<path d="M75.7443 118.364L76.1283 120.653L76.5097 120.589L76.9268 123.075C76.9932 123.47 77.1371 123.751 77.3586 123.917C77.5802 124.083 77.8981 124.131 78.3124 124.062C78.5196 124.027 78.7918 123.977 79.1292 123.91C79.4667 123.844 79.8127 123.771 80.1673 123.692C80.522 123.614 80.8437 123.54 81.1325 123.472L81.4524 125.379C81.239 125.434 80.988 125.496 80.6992 125.564C80.4105 125.632 80.1115 125.696 79.8023 125.758C79.4932 125.819 79.2021 125.873 78.929 125.919C78.138 126.052 77.4552 126.05 76.8806 125.914C76.2965 125.78 75.8245 125.506 75.4646 125.092C75.1062 124.687 74.867 124.127 74.7469 123.411L73.9505 118.665L75.7443 118.364ZM78.1829 117.752C78.7385 117.659 79.2447 117.675 79.7016 117.802C80.1491 117.93 80.5214 118.158 80.8185 118.486C81.1171 118.823 81.3098 119.251 81.3967 119.768C81.4916 120.333 81.423 120.819 81.1912 121.226C80.9609 121.642 80.5963 121.979 80.0974 122.237C79.6002 122.505 79.0078 122.696 78.3204 122.812L76.6678 123.089L76.4569 121.832L78.1236 121.552C78.5191 121.486 78.8085 121.336 78.9919 121.101C79.1675 120.878 79.2276 120.602 79.1723 120.272C79.1201 119.962 78.9739 119.725 78.7335 119.562C78.4854 119.41 78.1635 119.367 77.768 119.433C77.5138 119.476 77.2949 119.556 77.1114 119.674C76.92 119.803 76.7766 119.987 76.6811 120.226C76.5856 120.465 76.5609 120.778 76.6068 121.168L75.9753 120.693C75.9323 120.148 75.9883 119.674 76.1432 119.27C76.2888 118.868 76.5333 118.537 76.8767 118.276C77.2108 118.017 77.6462 117.842 78.1829 117.752Z" fill="white"/>
<path d="M68.3176 118.471C68.9955 118.483 69.5855 118.603 70.0876 118.831C70.5801 119.069 70.9901 119.381 71.3177 119.769C71.6452 120.157 71.886 120.59 72.0401 121.071C72.194 121.56 72.2665 122.063 72.2576 122.578L72.2529 122.85C72.2437 123.385 72.149 123.894 71.9688 124.378C71.7884 124.872 71.5278 125.307 71.1871 125.683C70.8464 126.059 70.426 126.352 69.9257 126.563C69.416 126.774 68.8365 126.874 68.1874 126.863C67.4809 126.851 66.858 126.701 66.3186 126.415C65.7791 126.139 65.3512 125.754 65.035 125.261C64.7188 124.769 64.547 124.207 64.5197 123.577L66.7679 123.615C66.8 123.969 66.9381 124.268 67.1822 124.511C67.4166 124.763 67.7629 124.893 68.2212 124.901C68.603 124.908 68.9245 124.818 69.1855 124.631C69.437 124.444 69.6277 124.185 69.7576 123.853C69.8875 123.521 69.9563 123.126 69.9642 122.668C69.9715 122.248 69.9208 121.865 69.8121 121.519C69.7033 121.183 69.5265 120.917 69.2815 120.722C69.0269 120.536 68.6943 120.44 68.2838 120.433C67.9783 120.428 67.7197 120.476 67.5079 120.577C67.2863 120.688 67.1118 120.838 66.9844 121.026C66.8473 121.225 66.7622 121.452 66.7292 121.71L64.4953 121.671C64.5351 121.022 64.7263 120.453 65.069 119.962C65.4115 119.481 65.862 119.107 66.4205 118.839C66.9788 118.582 67.6112 118.459 68.3176 118.471Z" fill="white"/>
<path d="M59.3384 117.625C60.1184 117.765 60.7313 117.972 61.1769 118.246C61.6208 118.529 61.9151 118.917 62.0597 119.408C62.1933 119.908 62.1902 120.547 62.0503 121.327L60.8319 128.122L58.7314 127.746L59.965 120.866C60.0307 120.5 59.9873 120.201 59.8347 119.97C59.671 119.746 59.4107 119.603 59.0535 119.539L57.9117 119.334L58.2529 117.431L59.3384 117.625ZM62.6718 124.596L62.3761 126.246L56.85 125.255L57.1457 123.605L62.6718 124.596Z" fill="white"/>
<path d="M49.1733 114.006C50.0633 114.425 50.7421 114.945 51.2098 115.565C51.6648 116.191 51.9079 116.885 51.9392 117.649C51.9704 118.413 51.7889 119.214 51.3948 120.052L48.7559 125.664L46.6303 124.665L49.3059 118.975C49.5009 118.56 49.5938 118.161 49.5845 117.776C49.5625 117.397 49.4433 117.056 49.2267 116.754C49.0015 116.447 48.6729 116.192 48.2409 115.989C47.8002 115.782 47.3944 115.691 47.0234 115.718C46.6438 115.739 46.3051 115.865 46.0074 116.094C45.7097 116.324 45.4612 116.65 45.2622 117.073L42.5866 122.763L40.4611 121.764L43.1001 116.152C43.4942 115.313 43.9953 114.663 44.6035 114.2C45.2117 113.737 45.9017 113.481 46.6736 113.432C47.4415 113.392 48.2747 113.584 49.1733 114.006Z" fill="white"/>
<path d="M40.4983 108.792C41.3903 109.464 41.9499 110.173 42.1771 110.918C42.4044 111.664 42.2832 112.38 41.8136 113.066L40.1897 111.841C40.3087 111.62 40.3256 111.352 40.2405 111.037C40.142 110.723 39.8831 110.408 39.4638 110.092C39.1436 109.851 38.8403 109.706 38.554 109.657C38.2543 109.611 38.0269 109.69 37.8717 109.896C37.7337 110.079 37.7045 110.284 37.7842 110.512C37.858 110.747 38.0836 111.043 38.4608 111.399L38.918 111.815C39.6153 112.461 40.0252 113.098 40.1477 113.729C40.2626 114.354 40.1188 114.933 39.7164 115.467C39.383 115.909 38.9937 116.195 38.5484 116.326C38.1031 116.456 37.6286 116.451 37.1248 116.311C36.6134 116.164 36.1062 115.901 35.603 115.522C34.7949 114.913 34.2781 114.242 34.0528 113.51C33.8216 112.786 33.9476 112.079 34.4306 111.391L36.0544 112.616C35.9297 112.845 35.9071 113.097 35.9866 113.372C36.0603 113.655 36.2764 113.931 36.6347 114.201C36.9168 114.414 37.1819 114.53 37.4301 114.55C37.6783 114.57 37.8714 114.488 38.0093 114.305C38.1416 114.13 38.1697 113.942 38.0939 113.741C38.018 113.54 37.8305 113.297 37.5314 113.012L37.0742 112.595C36.3674 111.931 35.9299 111.266 35.7617 110.601C35.5934 109.936 35.7277 109.314 36.1646 108.735C36.4808 108.315 36.871 108.036 37.3354 107.896C37.7941 107.763 38.2963 107.771 38.842 107.919C39.3821 108.076 39.9342 108.366 40.4983 108.792Z" fill="white"/>
<path d="M26.3874 102.217L26.5287 104.909L25.2624 105.939L22.6552 105.254L23.2902 103.63L24.9486 104.533L25.2152 104.316L24.6565 102.518L26.3874 102.217ZM23.0039 107.611L25.2619 106.143L26.7901 106.727L27.5009 109.325L25.7851 109.576L25.7335 107.698L25.4104 107.573L24.1291 108.948L23.0039 107.611ZM29.3781 107.797L26.9789 106.574L26.717 104.959L28.6133 103.046L29.7052 104.41L28.0985 105.385L28.155 105.727L29.9749 106.148L29.3781 107.797Z" fill="white"/>
<path d="M25.2687 89.0357C25.6364 89.9065 25.8025 90.7173 25.7672 91.4681C25.723 92.2226 25.5382 92.9018 25.2128 93.5056C24.8785 94.1131 24.4664 94.6343 23.9764 95.0693C23.4738 95.4991 22.9499 95.8292 22.4045 96.0594L22.1143 96.182C21.5161 96.4346 20.8859 96.5867 20.2237 96.6383C19.5526 96.6936 18.8961 96.6236 18.2539 96.4284C17.6081 96.2243 17.0163 95.8783 16.4786 95.3902C15.9283 94.897 15.4768 94.2327 15.1239 93.397C14.7562 92.5262 14.594 91.6879 14.6371 90.882C14.6803 90.076 14.9086 89.3526 15.322 88.7116C15.7229 88.0656 16.2955 87.544 17.0398 87.1468L17.9591 89.3238C17.5981 89.5488 17.3276 89.8288 17.1478 90.1638C16.968 90.4989 16.8776 90.8739 16.8766 91.2889C16.872 91.695 16.9606 92.1136 17.1426 92.5446C17.3246 92.9757 17.5609 93.3267 17.8516 93.5978C18.1423 93.8689 18.4722 94.0613 18.8415 94.1748C19.207 94.2796 19.6049 94.3137 20.0351 94.2771C20.4528 94.2355 20.8904 94.1181 21.3478 93.9249C21.7964 93.7355 22.1856 93.5038 22.5156 93.2297C22.833 92.9506 23.0842 92.6373 23.2691 92.2897C23.4415 91.9371 23.53 91.5577 23.5347 91.1515C23.5306 90.749 23.4357 90.3279 23.25 89.8881C22.9677 89.2196 22.5673 88.7253 22.0487 88.4054C21.5264 88.0766 20.9589 87.9846 20.3463 88.1292L19.4327 85.9654C20.1698 85.7474 20.9166 85.7119 21.673 85.8589C22.417 86.0008 23.1079 86.3361 23.7457 86.8648C24.371 87.3885 24.8787 88.1121 25.2687 89.0357Z" fill="white"/>
<path d="M22.3139 78.8007C22.4296 79.4783 22.4289 80.0984 22.3119 80.6608C22.1854 81.2248 21.97 81.7217 21.6656 82.1514C21.3596 82.5718 20.9874 82.9162 20.549 83.1848C20.1011 83.455 19.6137 83.6351 19.0866 83.7251L18.7619 83.7806C18.2254 83.8722 17.7011 83.8649 17.189 83.7586C16.6658 83.6446 16.1894 83.4353 15.7596 83.131C15.3283 82.8172 14.9641 82.4144 14.667 81.9227C14.3605 81.4326 14.1518 80.8629 14.0409 80.2135C13.9268 79.5453 13.9338 78.9338 14.0618 78.3792C14.1789 77.8168 14.3896 77.3207 14.694 76.891C14.9984 76.4612 15.3784 76.1057 15.834 75.8245C16.2803 75.5449 16.7716 75.3593 17.3081 75.2677L17.6328 75.2122C18.1599 75.1222 18.6795 75.1303 19.1916 75.2366C19.6944 75.3445 20.1606 75.5506 20.5903 75.855C21.0185 76.1499 21.3858 76.5425 21.6923 77.0326C21.9893 77.5242 22.1965 78.1136 22.3139 78.8007ZM20.408 79.1262C20.3324 78.6838 20.1756 78.3328 19.9376 78.0732C19.6995 77.8136 19.3982 77.6374 19.0337 77.5447C18.6675 77.4425 18.2774 77.4268 17.8633 77.4976C17.4209 77.5731 17.0487 77.719 16.7466 77.9353C16.4351 78.1531 16.2062 78.4295 16.06 78.7644C15.9122 79.09 15.8745 79.4645 15.9468 79.888C16.0175 80.3021 16.1774 80.6429 16.4265 80.9103C16.6756 81.1777 16.9832 81.3625 17.3493 81.4647C17.7045 81.559 18.1032 81.5684 18.5456 81.4928C18.9597 81.4221 19.3233 81.2825 19.6364 81.0741C19.9495 80.8656 20.1745 80.5948 20.3113 80.2614C20.4481 79.9281 20.4803 79.5497 20.408 79.1262Z" fill="white"/>
<path d="M21.2685 72.5453L13.425 72.2684L13.4891 70.4506L16.8527 70.5694L16.8482 70.6982C16.0466 70.6699 15.3822 70.5461 14.855 70.3269C14.328 70.0981 13.9384 69.769 13.686 69.3397C13.4337 68.9104 13.3181 68.3952 13.3393 67.7941L13.3429 67.6939C13.3752 66.7779 13.7004 66.0919 14.3184 65.636C14.9272 65.1703 15.8375 64.9588 17.0493 65.0016L21.5293 65.1598L21.4485 67.4499L16.8396 67.2871C16.4198 67.2723 16.0719 67.3842 15.796 67.6229C15.52 67.8615 15.3746 68.1908 15.3598 68.6106C15.3447 69.04 15.4707 69.3932 15.738 69.6701C15.9961 69.9372 16.3446 70.0785 16.7835 70.094L21.3494 70.2552L21.2685 72.5453Z" fill="white"/>
<path d="M22.7352 59.6105C22.5776 60.3871 22.3568 60.9951 22.0728 61.4343C21.7794 61.8717 21.3854 62.1571 20.8907 62.2905C20.3885 62.4126 19.7491 62.3949 18.9724 62.2373L12.2071 60.8643L12.6316 58.773L19.4811 60.163C19.846 60.2371 20.1457 60.2005 20.3802 60.0532C20.6072 59.8947 20.7568 59.6377 20.829 59.2821L21.0597 58.1452L22.9546 58.5297L22.7352 59.6105ZM15.6902 62.7842L14.048 62.4509L15.1646 56.9488L16.8068 57.2821L15.6902 62.7842Z" fill="white"/>
<path d="M24.9694 52.3695L22.796 51.5575L22.6606 51.9198L20.2993 51.0376C19.9237 50.8973 19.6085 50.8815 19.3539 50.9902C19.0992 51.0989 18.8984 51.3501 18.7514 51.7436C18.6778 51.9404 18.5854 52.2014 18.4741 52.5268C18.3627 52.8521 18.2525 53.188 18.1434 53.5346C18.0343 53.8812 17.9369 54.1964 17.8512 54.4804L16.04 53.8037C16.099 53.5913 16.1713 53.3432 16.257 53.0592C16.3427 52.7752 16.4362 52.484 16.5375 52.1855C16.6389 51.887 16.738 51.6081 16.8349 51.3487C17.1156 50.5974 17.4585 50.0069 17.8636 49.5773C18.2721 49.1387 18.7456 48.8671 19.2841 48.7625C19.8136 48.6546 20.4183 48.7276 21.0981 48.9816L25.606 50.6656L24.9694 52.3695ZM24.2801 54.7875C24.083 55.3153 23.8153 55.7453 23.4771 56.0776C23.1422 56.401 22.7586 56.6093 22.3263 56.7026C21.885 56.7925 21.4183 56.7456 20.9264 56.5618C20.3898 56.3614 20.0033 56.059 19.767 55.6547C19.5217 55.2472 19.4122 54.7628 19.4383 54.2018C19.4555 53.6375 19.586 53.0288 19.83 52.3759L20.4164 50.8062L21.6105 51.2523L21.019 52.8354C20.8787 53.211 20.864 53.5368 20.975 53.8127C21.0803 54.0763 21.2896 54.2666 21.6026 54.3835C21.8978 54.4938 22.176 54.4856 22.4374 54.359C22.6931 54.2201 22.8911 53.9629 23.0315 53.5872C23.1217 53.3457 23.1616 53.116 23.1513 52.8981C23.1354 52.6679 23.0479 52.4518 22.889 52.2497C22.7301 52.0477 22.4706 51.8692 22.1106 51.7143L22.8377 51.405C23.3308 51.6401 23.7133 51.9257 23.9853 52.2618C24.2606 52.5889 24.4254 52.9664 24.4795 53.3943C24.537 53.8133 24.4706 54.2777 24.2801 54.7875Z" fill="white"/>
<path d="M28.5756 45.9281C28.2257 46.5087 27.8261 46.9591 27.3769 47.2792C26.9243 47.5862 26.4483 47.7842 25.9487 47.8734C25.4491 47.9625 24.953 47.9533 24.4603 47.846C23.9594 47.7337 23.4882 47.5445 23.0466 47.2784L22.8135 47.1379C22.3555 46.862 21.9624 46.5247 21.634 46.1262C21.2974 45.7227 21.0518 45.2793 20.8972 44.796C20.7425 44.3126 20.6993 43.8017 20.7674 43.2631C20.8405 42.7163 21.0446 42.1648 21.3797 41.6087C21.7444 41.0036 22.1857 40.5394 22.7038 40.2161C23.2137 39.888 23.7609 39.7105 24.3455 39.6838C24.9302 39.657 25.5022 39.7899 26.0617 40.0825L24.9012 42.0084C24.5789 41.8588 24.2514 41.8287 23.9188 41.9181C23.583 41.9944 23.2968 42.2289 23.0603 42.6214C22.8632 42.9485 22.7799 43.2718 22.8104 43.5912C22.8458 43.9023 22.9746 44.1973 23.1968 44.4761C23.419 44.7549 23.7263 45.0126 24.1189 45.2491C24.4787 45.4659 24.8354 45.614 25.1889 45.6933C25.5343 45.7676 25.8528 45.7477 26.1445 45.6337C26.4329 45.5065 26.6831 45.2671 26.895 44.9154C27.0527 44.6537 27.1408 44.4058 27.1592 44.1717C27.1744 43.9245 27.1323 43.6984 27.0328 43.4935C26.93 43.2755 26.7757 43.0878 26.5696 42.9302L27.7228 41.0165C28.2641 41.3761 28.6611 41.8272 28.9139 42.3697C29.1585 42.9072 29.2565 43.4846 29.2078 44.1019C29.151 44.7142 28.9403 45.3229 28.5756 45.9281Z" fill="white"/>
<path d="M33.806 38.5911C33.2939 39.1959 32.8076 39.6224 32.3472 39.8706C31.8795 40.1126 31.3967 40.173 30.8989 40.0517C30.3999 39.9169 29.8481 39.5935 29.2433 39.0813L23.9752 34.6202L25.3543 32.9917L30.688 37.5084C30.9721 37.749 31.2524 37.8613 31.5288 37.8451C31.8041 37.8155 32.059 37.6622 32.2935 37.3854L33.0432 36.5001L34.5187 37.7496L33.806 38.5911ZM26.1034 37.98L24.8246 36.8972L28.4528 32.6128L29.7315 33.6957L26.1034 37.98Z" fill="white"/>
<path d="M42.0202 31.5997C41.2137 32.1624 40.4247 32.4916 39.6532 32.5873C38.8842 32.6698 38.1609 32.5341 37.4833 32.1802C36.8057 31.8263 36.2019 31.2696 35.6721 30.51L32.124 25.4238L34.0504 24.08L37.6476 29.2366C37.9098 29.6125 38.2098 29.8923 38.5474 30.0758C38.8874 30.2461 39.2424 30.3128 39.6124 30.2759C39.9903 30.2335 40.375 30.0757 40.7665 29.8025C41.1659 29.5239 41.4468 29.2174 41.6093 28.8829C41.7796 28.5429 41.8396 28.1867 41.7894 27.8143C41.7391 27.4419 41.5802 27.0638 41.3125 26.6801L37.7153 21.5234L39.6417 20.1796L43.1897 25.2658C43.7196 26.0254 44.0336 26.7842 44.1317 27.5424C44.2298 28.3005 44.1074 29.0262 43.7645 29.7194C43.4161 30.4048 42.8347 31.0316 42.0202 31.5997Z" fill="white"/>
<path d="M50.8705 26.6766C49.8425 27.1138 48.9488 27.2449 48.1896 27.0698C47.4303 26.8947 46.8705 26.4324 46.5103 25.6829L48.3818 24.887C48.5141 25.1005 48.7381 25.249 49.0538 25.3326C49.3745 25.4037 49.7765 25.3365 50.2598 25.131C50.6288 24.974 50.9058 24.7836 51.0907 24.5597C51.2807 24.3233 51.3252 24.0864 51.2243 23.8492C51.1346 23.6383 50.9713 23.5106 50.7345 23.4661C50.4939 23.4128 50.1252 23.4606 49.6283 23.6097L49.0392 23.798C48.132 24.0801 47.3746 24.1169 46.7671 23.9084C46.1685 23.6961 45.7383 23.2824 45.4767 22.6674C45.26 22.1578 45.2061 21.6775 45.3152 21.2264C45.4243 20.7754 45.6655 20.3667 46.0388 20.0004C46.421 19.6304 46.902 19.322 47.4819 19.0754C48.4133 18.6793 49.2523 18.5662 49.9991 18.7363C50.7421 18.8976 51.2912 19.3592 51.6464 20.1212L49.7749 20.9171C49.6389 20.6949 49.4318 20.5495 49.1536 20.481C48.8718 20.4038 48.5244 20.453 48.1114 20.6286C47.7863 20.7669 47.5533 20.9386 47.4123 21.1438C47.2713 21.349 47.2457 21.5571 47.3353 21.768C47.4213 21.97 47.5702 22.0883 47.7819 22.1227C47.9937 22.1572 48.2979 22.116 48.6944 21.9993L49.2835 21.8109C50.212 21.5302 51.0064 21.4828 51.6666 21.6689C52.3268 21.8551 52.7989 22.282 53.0829 22.9498C53.2884 23.433 53.336 23.9108 53.2256 24.3831C53.1115 24.8467 52.854 25.2779 52.4529 25.6767C52.0481 26.0668 51.5207 26.4001 50.8705 26.6766Z" fill="white"/>
<path d="M63.6164 17.7557L61.2164 16.5283L60.9595 14.9159L62.8592 13.0034L63.9467 14.3674L62.3338 15.3495L62.3879 15.689L64.2239 16.1071L63.6164 17.7557ZM60.6451 12.1235L60.7836 14.8134L59.5119 15.8427L56.9079 15.1554L57.5504 13.5448L59.2017 14.4419L59.4716 14.2248L58.9241 12.4267L60.6451 12.1235ZM57.2888 17.5457L59.5502 16.0831L61.0789 16.6662L61.7832 19.266L60.0554 19.5268L60.017 17.6476L59.693 17.5252L58.4165 18.8888L57.2888 17.5457Z" fill="white"/>
<defs>
<linearGradient id="paint0_linear_1681_14288" x1="0" y1="70" x2="140" y2="70" gradientUnits="userSpaceOnUse">
<stop stop-color="#386BB7"/>
<stop offset="1" stop-color="#E24C4A"/>
</linearGradient>
</defs>
</svg>
