<svg width="26" height="26" viewBox="0 0 26 26" fill="none" xmlns="http://www.w3.org/2000/svg">
<g clip-path="url(#clip0_290_38573)">
<path d="M1.39355 13.0017C1.39355 15.2974 2.0743 17.5415 3.34971 19.4503C4.62512 21.3591 6.43791 22.8468 8.55884 23.7253C10.6798 24.6038 13.0136 24.8337 15.2651 24.3858C17.5167 23.9379 19.5849 22.8325 21.2082 21.2092C22.8315 19.5859 23.9369 17.5177 24.3848 15.2661C24.8327 13.0146 24.6028 10.6807 23.7243 8.55982C22.8458 6.43889 21.3581 4.6261 19.4493 3.3507C17.5405 2.07529 15.2964 1.39454 13.0007 1.39454C9.67565 1.39086 6.47738 2.67017 4.07213 4.96597" stroke="white" stroke-width="1.5" stroke-linecap="round" stroke-linejoin="round"/>
<path d="M4.96561 1.39453L4.07275 4.96596L7.64418 5.85882" stroke="white" stroke-width="1.5" stroke-linecap="round" stroke-linejoin="round"/>
<path d="M13.0008 6.75V13.8929L8.35791 16.2143" stroke="white" stroke-width="1.5" stroke-linecap="round" stroke-linejoin="round"/>
</g>
<defs>
<clipPath id="clip0_290_38573">
<rect width="25" height="25" fill="white" transform="translate(0.5 0.5)"/>
</clipPath>
</defs>
</svg>
