<svg width="30" height="30" viewBox="0 0 30 30" fill="none" xmlns="http://www.w3.org/2000/svg">
<path d="M9.64284 27.8557C14.3767 27.8557 18.2143 24.0182 18.2143 19.2843C18.2143 14.5504 14.3767 10.7129 9.64284 10.7129C4.90897 10.7129 1.07141 14.5504 1.07141 19.2843C1.07141 24.0182 4.90897 27.8557 9.64284 27.8557Z" stroke="white" stroke-width="1.5" stroke-linecap="round" stroke-linejoin="round"/>
<path d="M20.3572 27.8557C25.0911 27.8557 28.9286 24.0182 28.9286 19.2843C28.9286 14.5504 25.0911 10.7129 20.3572 10.7129C15.6233 10.7129 11.7858 14.5504 11.7858 19.2843C11.7858 24.0182 15.6233 27.8557 20.3572 27.8557Z" stroke="white" stroke-width="1.5" stroke-linecap="round" stroke-linejoin="round"/>
<path d="M15 19.2835C19.7339 19.2835 23.5714 15.4459 23.5714 10.7121C23.5714 5.97818 19.7339 2.14062 15 2.14062C10.2661 2.14062 6.42859 5.97818 6.42859 10.7121C6.42859 15.4459 10.2661 19.2835 15 19.2835Z" stroke="white" stroke-width="1.5" stroke-linecap="round" stroke-linejoin="round"/>
</svg>
