<svg width="20" height="20" viewBox="0 0 20 20" fill="none" xmlns="http://www.w3.org/2000/svg">
<g clip-path="url(#clip0_1681_14137)">
<path d="M7.47166 3.21484L8.08595 1.62913C8.18955 1.36065 8.37181 1.12972 8.60888 0.966576C8.84594 0.803435 9.12675 0.715694 9.41452 0.714844H10.5859C10.8737 0.715694 11.1545 0.803435 11.3916 0.966576C11.6287 1.12972 11.8109 1.36065 11.9145 1.62913L12.5288 3.21484L14.6145 4.41484L16.3002 4.1577C16.5809 4.1196 16.8666 4.16581 17.121 4.29045C17.3753 4.41509 17.5869 4.61254 17.7288 4.8577L18.3002 5.8577C18.4467 6.10677 18.5141 6.39439 18.4937 6.68259C18.4733 6.97079 18.366 7.24603 18.1859 7.47199L17.1431 8.80056V11.2006L18.2145 12.5291C18.3946 12.7551 18.5019 13.0303 18.5223 13.3185C18.5427 13.6067 18.4752 13.8943 18.3288 14.1434L17.7574 15.1434C17.6155 15.3886 17.4039 15.586 17.1495 15.7107C16.8952 15.8353 16.6095 15.8815 16.3288 15.8434L14.6431 15.5863L12.5574 16.7863L11.9431 18.372C11.8395 18.6405 11.6572 18.8714 11.4202 19.0345C11.1831 19.1977 10.9023 19.2854 10.6145 19.2863H9.41452C9.12675 19.2854 8.84594 19.1977 8.60888 19.0345C8.37181 18.8714 8.18955 18.6405 8.08595 18.372L7.47166 16.7863L5.38595 15.5863L3.70023 15.8434C3.41954 15.8815 3.13386 15.8353 2.87949 15.7107C2.62513 15.586 2.41355 15.3886 2.27166 15.1434L1.70023 14.1434C1.55381 13.8943 1.48634 13.6067 1.50675 13.3185C1.52715 13.0303 1.63446 12.7551 1.81452 12.5291L2.85738 11.2006V8.80056L1.78595 7.47199C1.60589 7.24603 1.49858 6.97079 1.47818 6.68259C1.45777 6.39439 1.52524 6.10677 1.67166 5.8577L2.24309 4.8577C2.38498 4.61254 2.59655 4.41509 2.85092 4.29045C3.10529 4.16581 3.39097 4.1196 3.67166 4.1577L5.35738 4.41484L7.47166 3.21484ZM7.14309 10.0006C7.14309 10.5656 7.31066 11.118 7.62461 11.5879C7.93855 12.0578 8.38478 12.424 8.90685 12.6402C9.42893 12.8565 10.0034 12.913 10.5576 12.8028C11.1119 12.6926 11.621 12.4204 12.0205 12.0209C12.4201 11.6213 12.6922 11.1122 12.8025 10.558C12.9127 10.0037 12.8561 9.42925 12.6399 8.90718C12.4236 8.3851 12.0574 7.93888 11.5876 7.62493C11.1177 7.31098 10.5653 7.14342 10.0002 7.14342C9.24247 7.14342 8.51575 7.44443 7.97993 7.98025C7.44411 8.51607 7.14309 9.2428 7.14309 10.0006V10.0006Z" stroke="white" stroke-width="1.5" stroke-linecap="round" stroke-linejoin="round"/>
</g>
<defs>
<clipPath id="clip0_1681_14137">
<rect width="20" height="20" fill="white"/>
</clipPath>
</defs>
</svg>
