<svg width="51" height="50" viewBox="0 0 51 50" fill="none" xmlns="http://www.w3.org/2000/svg">
<path d="M38.5 5.5H12.5C11.9006 5.51646 11.3134 5.67375 10.7861 5.95915C10.2587 6.24455 9.80588 6.65005 9.46426 7.14286L2.96426 16.1429C2.4816 16.8249 2.24056 17.6486 2.27938 18.4833C2.3182 19.3179 2.63466 20.1157 3.17854 20.75L22.6785 43.2143C23.0124 43.6444 23.4402 43.9926 23.9292 44.2321C24.4182 44.4715 24.9555 44.596 25.5 44.596C26.0445 44.596 26.5818 44.4715 27.0708 44.2321C27.5598 43.9926 27.9876 43.6444 28.3214 43.2143L47.8214 20.75C48.3653 20.1157 48.6817 19.3179 48.7206 18.4833C48.7594 17.6486 48.5183 16.8249 48.0357 16.1429L41.5357 7.14286C41.1941 6.65005 40.7413 6.24455 40.2139 5.95915C39.6865 5.67375 39.0994 5.51646 38.5 5.5V5.5Z" stroke="#E24C4A" stroke-width="2" stroke-linecap="round" stroke-linejoin="round"/>
<path d="M23.6428 5.46436L14.9285 18.9644L25.5 44.5001" stroke="#E24C4A" stroke-width="2" stroke-linecap="round" stroke-linejoin="round"/>
<path d="M27.4643 5.46436L36.1429 18.9644L25.5 44.5001" stroke="#E24C4A" stroke-width="2" stroke-linecap="round" stroke-linejoin="round"/>
<path d="M2.35712 18.9644H48.6428" stroke="#E24C4A" stroke-width="2" stroke-linecap="round" stroke-linejoin="round"/>
</svg>
