<svg width="20" height="21" viewBox="0 0 20 21" fill="none" xmlns="http://www.w3.org/2000/svg">
<g clip-path="url(#clip0_62_3011)">
<path d="M16.4286 7.77623C16.4286 11.3334 9.99998 19.9191 9.99998 19.9191C9.99998 19.9191 3.57141 11.3334 3.57141 7.77623C3.57141 6.07126 4.2487 4.43613 5.4543 3.23054C6.65989 2.02495 8.29502 1.34766 9.99998 1.34766C11.7049 1.34766 13.3401 2.02495 14.5457 3.23054C15.7513 4.43613 16.4286 6.07126 16.4286 7.77623V7.77623Z" stroke="#E24C4A" stroke-linecap="round" stroke-linejoin="round"/>
<path d="M10 9.9195C11.1835 9.9195 12.1429 8.96011 12.1429 7.77665C12.1429 6.59318 11.1835 5.63379 10 5.63379C8.81657 5.63379 7.85718 6.59318 7.85718 7.77665C7.85718 8.96011 8.81657 9.9195 10 9.9195Z" stroke="#E24C4A" stroke-linecap="round" stroke-linejoin="round"/>
</g>
<defs>
<clipPath id="clip0_62_3011">
<rect width="20" height="20" fill="white" transform="translate(0 0.633789)"/>
</clipPath>
</defs>
</svg>
