<svg width="26" height="26" viewBox="0 0 26 26" fill="none" xmlns="http://www.w3.org/2000/svg">
<path d="M16.1423 23.7139C17.242 24.4233 18.5524 24.7325 19.8533 24.5894C21.1541 24.4463 22.366 23.8597 23.2852 22.9282L24.0888 22.1425C24.441 21.7821 24.6383 21.2982 24.6383 20.7942C24.6383 20.2903 24.441 19.8064 24.0888 19.446L20.678 16.071C20.3207 15.7199 19.8398 15.5231 19.3388 15.5231C18.8378 15.5231 18.3568 15.7199 17.9995 16.071C17.6391 16.4233 17.1552 16.6206 16.6513 16.6206C16.1473 16.6206 15.6634 16.4233 15.303 16.071L9.9459 10.7139C9.76718 10.5378 9.62527 10.3279 9.5284 10.0964C9.43154 9.86498 9.38166 9.61658 9.38166 9.36568C9.38166 9.11477 9.43154 8.86637 9.5284 8.63491C9.62527 8.40346 9.76718 8.19357 9.9459 8.01746C10.2971 7.66013 10.4938 7.17918 10.4938 6.67818C10.4938 6.17717 10.2971 5.69622 9.9459 5.33889L6.55304 1.94603C6.19269 1.59374 5.70877 1.39648 5.20482 1.39648C4.70088 1.39648 4.21695 1.59374 3.85661 1.94603L3.0709 2.7496C2.13937 3.66879 1.55274 4.88068 1.40965 6.18151C1.26656 7.48234 1.57573 8.79277 2.28518 9.89246C5.98169 15.3402 10.6851 20.0315 16.1423 23.7139Z" stroke="white" stroke-width="1.5" stroke-linecap="round" stroke-linejoin="round"/>
</svg>
