<svg width="30" height="30" viewBox="0 0 30 30" fill="none" xmlns="http://www.w3.org/2000/svg">
<g clip-path="url(#clip0_205_1542)">
<path d="M6.96427 12.858C10.2188 12.858 12.8571 10.2197 12.8571 6.96512C12.8571 3.71059 10.2188 1.07227 6.96427 1.07227C3.70973 1.07227 1.07141 3.71059 1.07141 6.96512C1.07141 10.2197 3.70973 12.858 6.96427 12.858Z" stroke="white" stroke-width="1.5" stroke-linecap="round" stroke-linejoin="round"/>
<path d="M23.0357 12.858C26.2902 12.858 28.9285 10.2197 28.9285 6.96512C28.9285 3.71059 26.2902 1.07227 23.0357 1.07227C19.7811 1.07227 17.1428 3.71059 17.1428 6.96512C17.1428 10.2197 19.7811 12.858 23.0357 12.858Z" stroke="white" stroke-width="1.5" stroke-linecap="round" stroke-linejoin="round"/>
<path d="M6.96427 28.9302C10.2188 28.9302 12.8571 26.2919 12.8571 23.0374C12.8571 19.7829 10.2188 17.1445 6.96427 17.1445C3.70973 17.1445 1.07141 19.7829 1.07141 23.0374C1.07141 26.2919 3.70973 28.9302 6.96427 28.9302Z" stroke="white" stroke-width="1.5" stroke-linecap="round" stroke-linejoin="round"/>
<path d="M23.0357 28.9302C26.2902 28.9302 28.9285 26.2919 28.9285 23.0374C28.9285 19.7829 26.2902 17.1445 23.0357 17.1445C19.7811 17.1445 17.1428 19.7829 17.1428 23.0374C17.1428 26.2919 19.7811 28.9302 23.0357 28.9302Z" stroke="white" stroke-width="1.5" stroke-linecap="round" stroke-linejoin="round"/>
</g>
<defs>
<clipPath id="clip0_205_1542">
<rect width="30" height="30" fill="white"/>
</clipPath>
</defs>
</svg>
