<svg width="26" height="26" viewBox="0 0 26 26" fill="none" xmlns="http://www.w3.org/2000/svg">
<g clip-path="url(#clip0_290_38568)">
<path d="M21.0358 9.43025C21.0358 13.8767 13.0001 24.6088 13.0001 24.6088C13.0001 24.6088 4.96436 13.8767 4.96436 9.43025C4.96436 7.29904 5.81097 5.25513 7.31796 3.74814C8.82495 2.24115 10.8689 1.39453 13.0001 1.39453C15.1313 1.39453 17.1752 2.24115 18.6822 3.74814C20.1892 5.25513 21.0358 7.29904 21.0358 9.43025V9.43025Z" stroke="white" stroke-width="1.5" stroke-linecap="round" stroke-linejoin="round"/>
<path d="M12.9994 12.1071C14.4787 12.1071 15.6779 10.9079 15.6779 9.42857C15.6779 7.94924 14.4787 6.75 12.9994 6.75C11.52 6.75 10.3208 7.94924 10.3208 9.42857C10.3208 10.9079 11.52 12.1071 12.9994 12.1071Z" stroke="white" stroke-width="1.5" stroke-linecap="round" stroke-linejoin="round"/>
</g>
<defs>
<clipPath id="clip0_290_38568">
<rect width="25" height="25" fill="white" transform="translate(0.5 0.5)"/>
</clipPath>
</defs>
</svg>
