<svg width="26" height="26" viewBox="0 0 26 26" fill="none" xmlns="http://www.w3.org/2000/svg">
<g clip-path="url(#clip0_1681_14253)">
<path d="M9.83909 4.51953L10.6069 2.53739C10.7364 2.20179 10.9643 1.91312 11.2606 1.7092C11.5569 1.50527 11.9079 1.39559 12.2677 1.39453H13.7319C14.0917 1.39559 14.4427 1.50527 14.739 1.7092C15.0353 1.91312 15.2632 2.20179 15.3927 2.53739L16.1605 4.51953L18.7677 6.01953L20.8748 5.6981C21.2257 5.65048 21.5828 5.70824 21.9007 5.86404C22.2187 6.01984 22.4832 6.26665 22.6605 6.5731L23.3748 7.8231C23.5578 8.13444 23.6422 8.49396 23.6167 8.85421C23.5912 9.21446 23.457 9.55852 23.2319 9.84096L21.9284 11.5017V14.5017L23.2677 16.1624C23.4927 16.4448 23.6269 16.7889 23.6524 17.1491C23.6779 17.5094 23.5936 17.8689 23.4105 18.1802L22.6962 19.4302C22.5189 19.7367 22.2544 19.9835 21.9364 20.1393C21.6185 20.2951 21.2614 20.3529 20.9105 20.3052L18.8034 19.9838L16.1962 21.4838L15.4284 23.466C15.2989 23.8016 15.071 24.0902 14.7747 24.2942C14.4784 24.4981 14.1274 24.6078 13.7677 24.6088H12.2677C11.9079 24.6078 11.5569 24.4981 11.2606 24.2942C10.9643 24.0902 10.7364 23.8016 10.6069 23.466L9.83909 21.4838L7.23195 19.9838L5.12481 20.3052C4.77394 20.3529 4.41684 20.2951 4.09888 20.1393C3.78092 19.9835 3.51645 19.7367 3.33909 19.4302L2.6248 18.1802C2.44177 17.8689 2.35744 17.5094 2.38295 17.1491C2.40845 16.7889 2.54259 16.4448 2.76766 16.1624L4.07123 14.5017V11.5017L2.73195 9.84096C2.50688 9.55852 2.37274 9.21446 2.34723 8.85421C2.32173 8.49396 2.40606 8.13444 2.58909 7.8231L3.30338 6.5731C3.48074 6.26665 3.74521 6.01984 4.06317 5.86404C4.38113 5.70824 4.73823 5.65048 5.08909 5.6981L7.19623 6.01953L9.83909 4.51953ZM9.42838 13.0017C9.42838 13.708 9.63784 14.3985 10.0303 14.9859C10.4227 15.5732 10.9805 16.0309 11.6331 16.3012C12.2857 16.5716 13.0038 16.6423 13.6966 16.5045C14.3893 16.3667 15.0257 16.0265 15.5252 15.5271C16.0247 15.0276 16.3648 14.3912 16.5026 13.6984C16.6404 13.0056 16.5697 12.2875 16.2994 11.6349C16.0291 10.9824 15.5713 10.4246 14.984 10.0321C14.3967 9.63971 13.7062 9.43025 12.9998 9.43025C12.0526 9.43025 11.1442 9.80652 10.4744 10.4763C9.80465 11.1461 9.42838 12.0545 9.42838 13.0017Z" stroke="#E24C4A" stroke-width="1.5" stroke-linecap="round" stroke-linejoin="round"/>
</g>
<defs>
<clipPath id="clip0_1681_14253">
<rect width="25" height="25" fill="white" transform="translate(0.5 0.5)"/>
</clipPath>
</defs>
</svg>
