<svg width="20" height="21" viewBox="0 0 20 21" fill="none" xmlns="http://www.w3.org/2000/svg">
<g clip-path="url(#clip0_62_2992)">
<path d="M12.5143 19.4555C13.394 20.023 14.4424 20.2704 15.483 20.1559C16.5237 20.0414 17.4932 19.5721 18.2286 18.8269L18.8714 18.1983C19.1533 17.9101 19.3111 17.5229 19.3111 17.1198C19.3111 16.7166 19.1533 16.3295 18.8714 16.0412L16.1428 13.3412C15.857 13.0603 15.4722 12.9028 15.0714 12.9028C14.6706 12.9028 14.2859 13.0603 14 13.3412V13.3412C13.7117 13.623 13.3246 13.7808 12.9214 13.7808C12.5183 13.7808 12.1311 13.623 11.8428 13.3412L7.55713 9.05549C7.41416 8.9146 7.30063 8.74669 7.22314 8.56152C7.14565 8.37636 7.10574 8.17764 7.10574 7.97692C7.10574 7.77619 7.14565 7.57747 7.22314 7.39231C7.30063 7.20714 7.41416 7.03923 7.55713 6.89834V6.89834C7.83807 6.61248 7.99549 6.22772 7.99549 5.82692C7.99549 5.42611 7.83807 5.04135 7.55713 4.75549L4.84285 2.0412C4.55457 1.75937 4.16743 1.60156 3.76427 1.60156C3.36112 1.60156 2.97398 1.75937 2.6857 2.0412L2.05713 2.68406C1.31191 3.4194 0.842609 4.38892 0.728136 5.42958C0.613663 6.47025 0.861 7.51859 1.42856 8.39834C4.38577 12.7565 8.14847 16.5095 12.5143 19.4555V19.4555Z" stroke="#E24C4A" stroke-linecap="round" stroke-linejoin="round"/>
</g>
<defs>
<clipPath id="clip0_62_2992">
<rect width="20" height="20" fill="white" transform="translate(0 0.883789)"/>
</clipPath>
</defs>
</svg>
