<?xml version="1.0" encoding="UTF-8"?>
<svg version="1.1" xmlns="http://www.w3.org/2000/svg" width="7561" height="2991">
<path d="M0 0 C1.7824707 1.0246582 1.7824707 1.0246582 3.42578125 2.30078125 C4.0494458 2.77733154 4.67311035 3.25388184 5.31567383 3.74487305 C5.97462646 4.26218994 6.6335791 4.77950684 7.3125 5.3125 C8.73932968 6.40918426 10.16642058 7.50552873 11.59375 8.6015625 C12.32207031 9.16520508 13.05039063 9.72884766 13.80078125 10.30957031 C16.60347633 12.46386213 19.43987211 14.57060204 22.27880859 16.67675781 C29.34905976 21.92894439 36.25313761 27.33536553 43 33 C44.04683585 33.87114079 45.09371266 34.74223238 46.140625 35.61328125 C52.64807784 41.05134785 58.97887703 46.64617272 65.1953125 52.4140625 C67.61983976 54.64949014 70.08148088 56.82803516 72.5625 59 C77.7762661 63.67880313 82.72696216 68.61759262 87.6875 73.5625 C88.49582275 74.36623047 89.30414551 75.16996094 90.13696289 75.99804688 C94.40727755 80.27933695 98.52183998 84.63558137 102.46508789 89.2199707 C104.54736041 91.63477092 106.71147853 93.97050622 108.875 96.3125 C113.7919433 101.71670795 118.46088689 107.27662579 123 113 C123.51578613 113.64855957 124.03157227 114.29711914 124.56298828 114.96533203 C185.25646953 191.50256351 226.68869802 285.50793821 231.13803101 405.54248047 C231.14045281 407.71265432 231.14331624 409.88282771 231.14658034 412.05300045 C231.1542922 417.98752778 231.15595053 423.92204352 231.15663147 429.85657525 C231.15847866 436.26853804 231.16608976 442.68049416 231.17311096 449.092453 C231.18386903 459.4769619 231.19205378 469.86146909 231.19799107 480.24598183 C231.20805382 497.78753983 231.22732303 515.32907858 231.24953346 532.87062497 C231.25806178 539.63130451 231.26632902 546.39198438 231.27463722 553.15266418 C231.27602474 554.27920838 231.27602474 554.27920838 231.27744028 555.42851105 C231.29940913 573.28778797 231.31920983 591.14706701 231.33789062 609.00634766 C231.33912014 610.17776514 231.33912014 610.17776514 231.3403745 611.37284763 C231.35945052 629.58464307 231.37641518 647.7964384 231.38873291 666.00823975 C231.38926258 666.79111848 231.38979225 667.57399722 231.39033796 668.38059956 C231.39458966 674.69113128 231.39876589 681.00166304 231.40292276 687.31219482 C231.42014934 713.37450735 231.44739709 739.43679343 231.48608314 765.49908325 C231.49154411 769.18536279 231.4968772 772.87164251 231.50212479 776.55792236 C231.50367636 777.64600135 231.50367636 777.64600135 231.50525927 778.75606173 C231.52152996 790.39060136 231.52710967 802.02512233 231.52842245 813.65967225 C231.52993263 825.36901807 231.5424006 837.07831043 231.56517886 848.78763443 C231.57716062 855.12146757 231.58439078 861.45520913 231.57846642 867.78905296 C231.57312752 873.60127947 231.5817926 879.41332001 231.60102279 885.2255156 C231.60555539 887.31429898 231.60518777 889.40310083 231.59907441 891.49188018 C231.5123117 924.07622843 236.47332417 958.8062314 259 984 C259.73863281 984.83273437 260.47726562 985.66546875 261.23828125 986.5234375 C272.97946929 999.01406308 288.21681787 1006.82091799 304.5 1011.75 C305.15137939 1011.94883789 305.80275879 1012.14767578 306.47387695 1012.35253906 C327.6859642 1018.40645994 352.94521374 1018.83955232 374 1012 C374.67627441 1011.78569336 375.35254883 1011.57138672 376.04931641 1011.35058594 C399.00976373 1003.88721839 418.20922735 990.01789787 436 974 C436.57266602 973.48904785 437.14533203 972.9780957 437.73535156 972.45166016 C444.59226645 966.31966308 451.08826856 960.07264547 457 953 C460.47929139 953.61514775 462.54719357 954.94397716 465.31640625 957.10546875 C466.57142944 958.07528687 466.57142944 958.07528687 467.85180664 959.06469727 C468.74633545 959.76522217 469.64086426 960.46574707 470.5625 961.1875 C472.4677641 962.66013058 474.37403411 964.13146057 476.28125 965.6015625 C477.24160156 966.3430957 478.20195312 967.08462891 479.19140625 967.84863281 C483.27430337 970.97610929 487.4123829 974.02509228 491.5625 977.0625 C498.9207766 982.45703413 506.23052938 987.91250855 513.52197266 993.39697266 C519.13423955 997.613533 524.77677259 1001.7862999 530.4375 1005.9375 C537.1814254 1010.8860376 543.85691197 1015.91698034 550.5 1021 C559.47049907 1027.86231238 568.52860957 1034.59485452 577.63964844 1041.26904297 C581.6823899 1044.2337758 585.7154099 1047.21168982 589.75 1050.1875 C597.82359336 1056.13830589 605.90853863 1062.07351858 614 1068 C613.50032582 1072.30968981 610.74872335 1074.9963718 608 1078.125 C607.55527344 1078.64320312 607.11054688 1079.16140625 606.65234375 1079.6953125 C605.11548467 1081.47618542 603.55962333 1083.2390273 602 1085 C601.35144043 1085.73758545 600.70288086 1086.4751709 600.03466797 1087.23510742 C594.44339756 1093.53111218 588.62385311 1099.56239118 582.67138672 1105.51391602 C581.1282647 1107.05923066 579.59335694 1108.61240446 578.05859375 1110.16601562 C571.69864852 1116.56196917 565.08812437 1122.40488816 558 1128 C556.74534836 1129.02484225 555.49248233 1130.05187824 554.2421875 1131.08203125 C545.12943865 1138.50089651 535.71419672 1145.39050168 526 1152 C525.00758301 1152.67796631 525.00758301 1152.67796631 523.99511719 1153.36962891 C471.66912501 1188.86266818 407.60055724 1213.94175789 343.73046875 1214.203125 C342.0102803 1214.21357849 342.0102803 1214.21357849 340.25534058 1214.22424316 C336.56602277 1214.24157166 332.87685683 1214.247965 329.1875 1214.25 C327.92912323 1214.25100708 326.67074646 1214.25201416 325.37423706 1214.25305176 C306.70538212 1214.24293015 288.49418967 1213.70064642 270 1211 C267.88151606 1210.71870753 265.76302647 1210.43745754 263.64453125 1210.15625 C204.19612313 1201.82545983 146.49233565 1176.84364 103 1135 C102.37303223 1134.40026367 101.74606445 1133.80052734 101.10009766 1133.18261719 C91.90530977 1124.34156055 83.52538536 1115.29861406 76 1105 C75.5157959 1104.34950684 75.0315918 1103.69901367 74.53271484 1103.02880859 C41.24654447 1058.20200772 25.587138 1003.99292705 20 949 C19.91057666 948.13733247 19.82115332 947.27466494 19.72902018 946.38585597 C18.75253227 935.56554055 18.8639983 924.75338811 18.87974548 913.89823914 C18.87930896 911.6555023 18.87843255 909.4127655 18.87715632 907.17002898 C18.8749274 901.03114255 18.87891066 894.89227367 18.88393438 888.75338948 C18.88781685 882.80590893 18.88697302 876.85842956 18.88625254 870.9109482 C18.88494166 858.75213479 18.88826852 846.59332683 18.89426994 834.434515 C18.9001939 822.40171977 18.90403729 810.36892682 18.90512276 798.33613014 C18.9051915 797.58701015 18.90526024 796.83789016 18.90533106 796.06606956 C18.90566941 792.26142173 18.90597079 788.45677389 18.90625793 784.65212605 C18.90835643 757.72779929 18.91508845 730.80347549 18.92456055 703.87915039 C18.93374996 677.72810888 18.94083113 651.57706819 18.94506836 625.42602539 C18.94526565 624.21616378 18.94526565 624.21616378 18.94546692 622.98186052 C18.94678548 614.88165622 18.94806129 606.78145192 18.94930578 598.68124761 C18.95184176 582.18128193 18.95466301 565.68131631 18.95765686 549.18135071 C18.95779415 548.42276597 18.95793144 547.66418123 18.95807289 546.88260908 C18.96229464 523.63859185 18.96772512 500.39457513 18.97434998 477.15055847 C18.97472053 475.84870872 18.97509109 474.54685897 18.97547287 473.20555923 C18.98296632 447.13703928 18.99163526 421.06851969 19 395 C121.96 394.505 121.96 394.505 227 394 C216.44 387.73 205.88 381.46 195 375 C182.5 367.5 182.5 367.5 176.45703125 363.8671875 C171.7545264 361.04553771 167.04231359 358.24077311 162.32421875 355.4453125 C161.66155502 355.05268219 160.9988913 354.66005188 160.31614685 354.25552368 C158.95822816 353.45106197 157.60029242 352.64662904 156.24234009 351.84222412 C155.56424286 351.44054016 154.88614563 351.0388562 154.1875 350.625 C153.50964447 350.22347717 152.83178894 349.82195435 152.13339233 349.40826416 C142.0764178 343.44845371 132.06886029 337.41279403 122.08969116 331.3237915 C112.68063035 325.58653083 103.19694776 319.98691287 93.67642212 314.43695068 C84.13984212 308.87505069 74.68343386 303.19342278 65.26226807 297.43850708 C55.76342186 291.63917815 46.19281214 285.97361478 36.56665039 280.38824463 C29.83040682 276.47918484 23.15185339 272.50512193 16.5703125 268.33984375 C15.97084808 267.96236496 15.37138367 267.58488617 14.75375366 267.19596863 C11.89294944 265.39376313 9.04377104 263.57852901 6.20849609 261.73608398 C5.20125488 261.09872314 4.19401367 260.4613623 3.15625 259.8046875 C2.27775391 259.23733887 1.39925781 258.66999023 0.49414062 258.08544922 C-2.61132261 256.73395259 -3.82067693 256.90431316 -7 258 C-8.98677658 259.00165999 -10.93345217 260.0845425 -12.84765625 261.21875 C-13.40770859 261.54818604 -13.96776093 261.87762207 -14.54478455 262.21704102 C-16.38834054 263.30424083 -18.22541145 264.40191293 -20.0625 265.5 C-21.36365639 266.27064832 -22.66509345 267.04082293 -23.96679688 267.81054688 C-33.85097384 273.66776966 -43.66833415 279.63506633 -53.47485352 285.62109375 C-62.36344163 291.04073522 -71.3288796 296.31988803 -80.32275391 301.5625 C-89.27303304 306.78249662 -98.15744821 312.09966525 -107 317.5 C-116.44306335 323.26707995 -125.9407175 328.92769052 -135.5 334.5 C-145.20394481 340.15695113 -154.84753939 345.90182888 -164.4375 351.75 C-175.16917465 358.29326376 -185.9570389 364.73210644 -196.78955078 371.10693359 C-202.86409174 374.68883402 -208.9290269 378.28694149 -214.99353027 381.88580322 C-217.15445362 383.16789337 -219.31599029 384.44894513 -221.47753906 385.72998047 C-222.81188915 386.52174217 -224.14620084 387.31356858 -225.48046875 388.10546875 C-226.09506454 388.46945267 -226.70966034 388.83343658 -227.34288025 389.20845032 C-229.93962905 390.75111037 -232.48593977 392.32395985 -235 394 C-166.03 394.33 -97.06 394.66 -26 395 C-25.93978228 457.21447345 -25.93978228 457.21447345 -25.92304993 476.71450806 C-25.92216193 477.74802505 -25.92216193 477.74802505 -25.92125598 478.80242118 C-25.90135967 502.02211792 -25.88561651 525.24181556 -25.87297058 548.46151733 C-25.87255641 549.22004363 -25.87214224 549.97856993 -25.87171552 550.76008187 C-25.86273431 567.24960371 -25.85442412 583.73912582 -25.84680401 600.22864834 C-25.84306239 608.31649479 -25.83917267 616.40434116 -25.83520508 624.4921875 C-25.8348128 625.29697463 -25.83442052 626.10176175 -25.83401636 626.93093636 C-25.82125938 652.9607324 -25.7987458 678.99050874 -25.77110834 705.02029287 C-25.74273111 731.79578748 -25.72432532 758.57127122 -25.71825503 785.34678061 C-25.71739072 789.1389261 -25.71641381 792.93107156 -25.71536827 796.72321701 C-25.715166 797.46947873 -25.71496373 798.21574045 -25.71475533 798.98461616 C-25.71122652 810.94008062 -25.69735685 822.89551121 -25.6795039 834.85096192 C-25.66172875 846.90492004 -25.65512416 858.95884499 -25.65949587 871.01281573 C-25.6615601 877.5298214 -25.6586087 884.04674809 -25.64238358 890.56373787 C-25.47105929 963.07859144 -34.45352018 1037.40186266 -78 1098 C-78.73863281 1099.03253906 -79.47726562 1100.06507812 -80.23828125 1101.12890625 C-94.37123523 1120.38285953 -110.95496805 1138.77896527 -130.37304688 1152.82177734 C-132.0193337 1154.01400127 -133.64278879 1155.23313422 -135.265625 1156.45703125 C-187.61244466 1195.43690855 -254.6375782 1213.774836 -319.4296875 1214.23828125 C-320.57082504 1214.2480751 -321.71196259 1214.25786896 -322.88768005 1214.26795959 C-346.87443667 1214.43161421 -370.37908773 1214.58597499 -394 1210 C-395.13953125 1209.78569336 -396.2790625 1209.57138672 -397.453125 1209.35058594 C-462.82597132 1196.7633815 -523.21411853 1164.8668855 -573 1121 C-573.71873291 1120.36884277 -574.43746582 1119.73768555 -575.17797852 1119.08740234 C-581.49313698 1113.47854864 -587.54403791 1107.64220927 -593.51391602 1101.67138672 C-595.05923066 1100.1282647 -596.61240446 1098.59335694 -598.16601562 1097.05859375 C-603.85907832 1091.39677716 -609.15191231 1085.61390604 -614.15185547 1079.32177734 C-615.73890286 1077.32800975 -617.37895112 1075.41160865 -619.0625 1073.5 C-621 1071 -621 1071 -621 1068 C-619.50976562 1066.56469727 -619.50976562 1066.56469727 -617.40625 1065.06640625 C-616.63152344 1064.50630859 -615.85679688 1063.94621094 -615.05859375 1063.36914062 C-614.21425781 1062.77294922 -613.36992188 1062.17675781 -612.5 1061.5625 C-610.73909264 1060.29364946 -608.97868318 1059.02410766 -607.21875 1057.75390625 C-606.33445312 1057.11984863 -605.45015625 1056.48579102 -604.5390625 1055.83251953 C-600.98889389 1053.27025361 -597.49227285 1050.64032455 -594 1048 C-588.30124386 1043.70790338 -582.56498184 1039.46974819 -576.8125 1035.25 C-569.98564596 1030.2384432 -563.22562809 1025.14651375 -556.5 1020 C-545.98851896 1011.95879906 -535.34369116 1004.10939729 -524.66601562 996.29101562 C-515.5463431 989.60935079 -506.48021852 982.86829437 -497.5 976 C-490.50256374 970.65613657 -483.49560856 965.32608173 -476.4375 960.0625 C-475.64601563 959.46501953 -474.85453125 958.86753906 -474.0390625 958.25195312 C-473.30300781 957.70603516 -472.56695313 957.16011719 -471.80859375 956.59765625 C-471.16720459 956.11820557 -470.52581543 955.63875488 -469.86499023 955.14477539 C-467.9093543 953.94435952 -466.24246396 953.42972532 -464 953 C-463.11699219 953.96679688 -462.23398438 954.93359375 -461.32421875 955.9296875 C-435.11777868 984.44241182 -400.11403378 1013.80571321 -359.59326172 1016.20141602 C-355.8510376 1016.30378765 -352.11857057 1016.32909805 -348.375 1016.3125 C-347.71359009 1016.31034485 -347.05218018 1016.3081897 -346.37072754 1016.30596924 C-335.94288177 1016.25151656 -326.08238707 1015.77902348 -316 1013 C-315.27458008 1012.80132324 -314.54916016 1012.60264648 -313.80175781 1012.39794922 C-298.62678318 1008.08577571 -284.78535415 1001.67800544 -273 991 C-272.16984375 990.26265625 -271.3396875 989.5253125 -270.484375 988.765625 C-247.94700276 967.61091363 -239.90487155 935.51000756 -238.72432792 905.56230962 C-238.58246562 899.89272911 -238.59607322 894.22454495 -238.61473083 888.55363464 C-238.61071229 886.38281703 -238.60537938 884.21200153 -238.59886509 882.04118997 C-238.58485281 876.14188899 -238.58910004 870.24272742 -238.59657824 864.34341991 C-238.60135203 857.95538872 -238.58872413 851.56738811 -238.57821655 845.17936707 C-238.56229595 834.12790731 -238.55688586 823.07648525 -238.55874443 812.02501488 C-238.56059112 800.42947153 -238.55531521 788.83396322 -238.54106331 777.23842812 C-238.54017343 776.5143501 -238.53928355 775.79027208 -238.53836671 775.04425231 C-238.5337959 771.36575512 -238.52907889 767.68725812 -238.52429188 764.0087612 C-238.51459714 756.53105333 -238.50586372 749.05334435 -238.49742985 741.57563496 C-238.49616347 740.45313004 -238.49616347 740.45313004 -238.4948715 739.30794826 C-238.47506217 721.53269544 -238.46504072 703.75743893 -238.45629883 685.98217773 C-238.45572183 684.81698556 -238.45572183 684.81698556 -238.45513317 683.62825415 C-238.45201751 677.33521541 -238.4489264 671.04217665 -238.44587547 664.74913787 C-238.43707808 646.63573571 -238.42585444 628.52233549 -238.41333008 610.40893555 C-238.41253005 609.24508067 -238.41253005 609.24508067 -238.41171386 608.05771357 C-238.39947985 590.31672047 -238.38516161 572.57573129 -238.36577702 554.83474445 C-238.36496216 554.08753125 -238.3641473 553.34031805 -238.36330775 552.57046202 C-238.35513741 545.10719487 -238.34669957 537.64392808 -238.33781785 530.18066175 C-238.31889681 514.20046735 -238.3058454 498.22029774 -238.30482311 482.24009155 C-238.3040262 470.58769487 -238.29643974 458.93532255 -238.28229337 447.28293391 C-238.27491485 440.98311725 -238.27074588 434.68334224 -238.27541161 428.38352203 C-238.27965425 422.59925543 -238.27454921 416.81506996 -238.26250375 411.03081504 C-238.25977129 408.95567313 -238.26029048 406.88052336 -238.26468485 404.8053843 C-238.30456363 384.2917949 -236.9482645 363.89883236 -233.75 343.625 C-233.64395447 342.94131348 -233.53790894 342.25762695 -233.4286499 341.55322266 C-227.05927462 300.67475742 -215.43530444 260.5446574 -198 223 C-197.52804199 221.97922363 -197.05608398 220.95844727 -196.56982422 219.90673828 C-178.44095494 180.90365132 -155.83964855 143.88342146 -128 111 C-127.13096145 109.95748863 -126.26250152 108.91449472 -125.39453125 107.87109375 C-119.95544539 101.35831319 -114.35703204 95.02457695 -108.5859375 88.8046875 C-106.35050986 86.38016024 -104.17196484 83.91851912 -102 81.4375 C-97.32119687 76.2237339 -92.38240738 71.27303784 -87.4375 66.3125 C-86.2319043 65.10001587 -86.2319043 65.10001587 -85.00195312 63.86303711 C-80.72066305 59.59272245 -76.36441863 55.47816002 -71.7800293 51.53491211 C-69.36522908 49.45263959 -67.02949378 47.28852147 -64.6875 45.125 C-59.28508543 40.2042822 -53.69831141 35.57207447 -48 31 C-46.87979484 30.08774711 -45.76002295 29.17496197 -44.640625 28.26171875 C-37.59644381 22.54036144 -30.42654134 17.01447169 -23.125 11.625 C-22.35285156 11.05434814 -21.58070313 10.48369629 -20.78515625 9.89575195 C-18.53529766 8.24670787 -16.26894976 6.62263693 -14 5 C-13.20948242 4.41186523 -12.41896484 3.82373047 -11.60449219 3.21777344 C-10.43515137 2.37907715 -10.43515137 2.37907715 -9.2421875 1.5234375 C-8.54722168 1.01474121 -7.85225586 0.50604492 -7.13623047 -0.01806641 C-4.3138386 -1.31539899 -2.917823 -0.95496091 0 0 Z " fill="#DC4C4C" transform="translate(1723,897)"/>
<path d="M0 0 C69.96 0 139.92 0 212 0 C212.02187378 23.27394287 212.02187378 23.27394287 212.04418945 47.01806641 C212.05436629 57.38139887 212.06460436 67.74473106 212.07551575 78.10806274 C212.07620828 78.76653947 212.07690081 79.42501619 212.07761432 80.10344675 C212.10099691 102.28563437 212.12846308 124.46781499 212.15898132 146.6499939 C212.15997689 147.37438121 212.16097246 148.09876853 212.16199819 148.84510698 C212.18366065 164.59094369 212.20598363 180.33677941 212.22898628 196.08261422 C212.24026403 203.80523873 212.25139594 211.52786345 212.26245117 219.25048828 C212.26355374 220.01895041 212.2646563 220.78741254 212.26579228 221.5791614 C212.30141123 246.45231492 212.32741447 271.3254671 212.34838969 296.19863692 C212.37000956 321.77567647 212.40141325 347.35268602 212.44499113 372.92969802 C212.45115267 376.5487269 212.45720327 380.16775595 212.46318626 383.78678513 C212.46495759 384.85511864 212.46495759 384.85511864 212.46676469 385.94503465 C212.48542951 397.37391835 212.49389077 408.80278753 212.49846124 420.2316846 C212.50328529 431.74334878 212.51927566 443.25494432 212.54566566 454.76658197 C212.55962378 460.99500172 212.56887281 467.22333061 212.56500816 473.45176697 C212.5615689 479.16833539 212.57212804 484.88471057 212.59323552 490.60123949 C212.59845385 492.65544647 212.59879135 494.7096738 212.59339563 496.76388033 C212.51683728 529.25194638 217.55115129 563.89327303 240 589 C241.10794922 590.24910156 241.10794922 590.24910156 242.23828125 591.5234375 C253.97946929 604.01406308 269.21681787 611.82091799 285.5 616.75 C286.15137939 616.94883789 286.80275879 617.14767578 287.47387695 617.35253906 C308.6859642 623.40645994 333.94521374 623.83955232 355 617 C355.67627441 616.78569336 356.35254883 616.57138672 357.04931641 616.35058594 C380.00976373 608.88721839 399.20922735 595.01789787 417 579 C417.57266602 578.48904785 418.14533203 577.9780957 418.73535156 577.45166016 C425.59226645 571.31966308 432.08826856 565.07264547 438 558 C441.47929139 558.61514775 443.54719357 559.94397716 446.31640625 562.10546875 C447.15308838 562.75201416 447.98977051 563.39855957 448.85180664 564.06469727 C450.19359985 565.11548462 450.19359985 565.11548462 451.5625 566.1875 C453.4677641 567.66013058 455.37403411 569.13146057 457.28125 570.6015625 C458.24160156 571.3430957 459.20195312 572.08462891 460.19140625 572.84863281 C464.27430337 575.97610929 468.4123829 579.02509228 472.5625 582.0625 C479.9207766 587.45703413 487.23052938 592.91250855 494.52197266 598.39697266 C500.13423955 602.613533 505.77677259 606.7862999 511.4375 610.9375 C518.1814254 615.8860376 524.85691197 620.91698034 531.5 626 C540.47049907 632.86231238 549.52860957 639.59485452 558.63964844 646.26904297 C562.6823899 649.2337758 566.7154099 652.21168982 570.75 655.1875 C578.82359336 661.13830589 586.90853863 667.07351858 595 673 C594.50032582 677.30968981 591.74872335 679.9963718 589 683.125 C588.33291016 683.90230469 588.33291016 683.90230469 587.65234375 684.6953125 C586.11548467 686.47618542 584.55962333 688.2390273 583 690 C582.02716064 691.10637817 582.02716064 691.10637817 581.03466797 692.23510742 C575.44339756 698.53111218 569.62385311 704.56239118 563.67138672 710.51391602 C562.1282647 712.05923066 560.59335694 713.61240446 559.05859375 715.16601562 C552.69864852 721.56196917 546.08812437 727.40488816 539 733 C537.74534836 734.02484225 536.49248233 735.05187824 535.2421875 736.08203125 C526.12943865 743.50089651 516.71419672 750.39050168 507 757 C506.33838867 757.45197754 505.67677734 757.90395508 504.99511719 758.36962891 C452.66912501 793.86266818 388.60055724 818.94175789 324.73046875 819.203125 C323.0102803 819.21357849 323.0102803 819.21357849 321.25534058 819.22424316 C317.56602277 819.24157166 313.87685683 819.247965 310.1875 819.25 C308.92912323 819.25100708 307.67074646 819.25201416 306.37423706 819.25305176 C287.70538212 819.24293015 269.49418967 818.70064642 251 816 C248.88151606 815.71870753 246.76302647 815.43745754 244.64453125 815.15625 C185.19612313 806.82545983 127.49233565 781.84364 84 740 C83.05954834 739.10039551 83.05954834 739.10039551 82.10009766 738.18261719 C72.90530977 729.34156055 64.52538536 720.29861406 57 710 C56.27369385 709.02426025 56.27369385 709.02426025 55.53271484 708.02880859 C22.24654447 663.20200772 6.587138 608.99292705 1 554 C0.91057666 553.13733247 0.82115332 552.27466494 0.72902018 551.38585597 C-0.24746773 540.56554055 -0.1360017 529.75338811 -0.12025452 518.89823914 C-0.12069104 516.6555023 -0.12156745 514.4127655 -0.12284368 512.17002898 C-0.1250726 506.03114255 -0.12108934 499.89227367 -0.11606562 493.75338948 C-0.11218315 487.80590893 -0.11302698 481.85842956 -0.11374746 475.9109482 C-0.11505834 463.75213479 -0.11173148 451.59332683 -0.10573006 439.434515 C-0.0998061 427.40171977 -0.09596271 415.36892682 -0.09487724 403.33613014 C-0.0948085 402.58701015 -0.09473976 401.83789016 -0.09466894 401.06606956 C-0.09433059 397.26142173 -0.09402921 393.45677389 -0.09374207 389.65212605 C-0.09164357 362.72779929 -0.08491155 335.80347549 -0.07543945 308.87915039 C-0.06625004 282.72810888 -0.05916887 256.57706819 -0.05493164 230.42602539 C-0.05480011 229.61945098 -0.05466859 228.81287657 -0.05453308 227.98186052 C-0.05321452 219.88165622 -0.05193871 211.78145192 -0.05069422 203.68124761 C-0.04815824 187.18128193 -0.04533699 170.68131631 -0.04234314 154.18135071 C-0.04220585 153.42276597 -0.04206856 152.66418123 -0.04192711 151.88260908 C-0.03770536 128.63859185 -0.03227488 105.39457513 -0.02565002 82.15055847 C-0.02527947 80.84870872 -0.02490891 79.54685897 -0.02452713 78.20555923 C-0.01703368 52.13703928 -0.00836474 26.06851969 0 0 Z " fill="#3C69B2" transform="translate(1742,1292)"/>
<path d="M0 0 C55.1925 -0.0928125 55.1925 -0.0928125 111.5 -0.1875 C123.10091797 -0.21481201 134.70183594 -0.24212402 146.65429688 -0.27026367 C160.86425781 -0.28381348 160.86425781 -0.28381348 167.52502441 -0.28633118 C172.15853216 -0.28911635 176.79193588 -0.30031981 181.42541504 -0.31672668 C187.35063279 -0.33742698 193.27570103 -0.34345082 199.20095158 -0.33921683 C201.3661791 -0.34010114 203.53141228 -0.34597675 205.69660854 -0.35764539 C221.2742363 -0.43764114 235.92489455 0.49170442 250.625 6.1875 C251.41712891 6.48865723 252.20925781 6.78981445 253.02539062 7.10009766 C277.53773991 16.72994916 295.23472724 34.30593629 306.65234375 57.90234375 C316.12129651 79.66721198 316.81080785 103.61388054 308.25 125.6875 C301.36000981 142.42002877 289.42764708 156.26446733 275 167 C276.12535156 167.72703125 276.12535156 167.72703125 277.2734375 168.46875 C300.9938406 184.00352281 319.38068481 203.35156532 326.4921875 231.4375 C331.65537529 257.49173993 326.7895537 285.84516638 312.08984375 308.078125 C295.47862646 331.30278021 270.70959596 345.92214985 242.70710754 351.03512573 C232.50926538 352.57272529 222.24063951 352.26221857 211.9519043 352.22705078 C209.59742902 352.22643729 207.24295339 352.22670649 204.88847828 352.2277813 C198.61352989 352.2282307 192.33865861 352.21668363 186.06372833 352.20256042 C180.16410595 352.19112577 174.26450181 352.19063175 168.36486816 352.18920898 C151.13906866 352.17873643 133.91328334 352.15081395 116.6875 352.125 C58.9271875 352.063125 58.9271875 352.063125 0 352 C0 235.84 0 119.68 0 0 Z M106 79 C106 96.82 106 114.64 106 133 C119.59469371 133.1165129 119.59469371 133.1165129 133.18945312 133.1953125 C138.74144959 133.21914275 144.29317997 133.24720925 149.8449707 133.30175781 C154.32539456 133.34549987 158.80553274 133.36919646 163.28615379 133.37950897 C164.98804401 133.3868498 166.68992016 133.40118362 168.39168739 133.42292023 C179.53165069 133.55943789 190.03669051 133.57353295 198.9375 125.875 C204.35124875 119.77151884 206.72671927 112.54660107 206.30859375 104.4375 C205.20334262 95.70741516 201.57888966 89.86226061 195 84 C188.48795348 79.65464543 182.1804001 78.846381 174.45581055 78.88647461 C173.71380905 78.88632858 172.97180756 78.88618256 172.20732117 78.8860321 C169.7670901 78.88672596 167.3269364 78.8944936 164.88671875 78.90234375 C163.18992657 78.9042098 161.49313385 78.90563282 159.79634094 78.90663147 C155.3395335 78.9104419 150.88275887 78.92025957 146.42596436 78.93133545 C141.07364327 78.94338405 135.72131119 78.94795883 130.36898041 78.95378876 C122.24596415 78.96347213 114.12301982 78.982639 106 79 Z M106 214 C106 233.47 106 252.94 106 273 C121.01657177 273.11648623 121.01657177 273.11648623 136.03320312 273.1953125 C142.16461156 273.2191554 148.29577938 273.24725697 154.42700195 273.30175781 C159.37426058 273.34545541 164.3212609 273.36918737 169.26869774 273.37950897 C171.14921315 273.38685763 173.0297156 273.40120711 174.91012001 273.42292023 C187.63244154 273.56388424 198.95786667 273.21178962 209.28125 264.75 C215.12658531 258.79838587 217.53517547 251.20812091 218 243 C217.62079485 234.14372486 214.52961653 227.3579679 208.14453125 221.21484375 C200.95400197 215.37343573 193.11437208 213.53346583 183.99194336 213.65942383 C183.14206848 213.65898575 182.2921936 213.65854767 181.41656494 213.65809631 C178.64074766 213.66016645 175.86555395 213.68341253 173.08984375 213.70703125 C171.15214874 213.71263354 169.21444945 213.71690064 167.27674866 213.71989441 C162.20175232 213.73129337 157.12701769 213.76071754 152.05212402 213.79400635 C145.94969337 213.83024065 139.84717472 213.84389196 133.74466705 213.86136627 C124.49626325 213.89035813 115.24843254 213.94787984 106 214 Z " fill="#3C69B2" transform="translate(3311,1634)"/>
<path d="M0 0 C55.1925 -0.0928125 55.1925 -0.0928125 111.5 -0.1875 C123.10091797 -0.21481201 134.70183594 -0.24212402 146.65429688 -0.27026367 C160.86425781 -0.28381348 160.86425781 -0.28381348 167.52502441 -0.28633118 C172.15853216 -0.28911635 176.79193588 -0.30031981 181.42541504 -0.31672668 C187.35063279 -0.33742698 193.27570103 -0.34345082 199.20095158 -0.33921683 C201.3661791 -0.34010114 203.53141228 -0.34597675 205.69660854 -0.35764539 C221.27328044 -0.43763624 235.92617729 0.49017954 250.625 6.1875 C251.4185791 6.49010742 252.2121582 6.79271484 253.02978516 7.10449219 C278.54263208 17.14924393 296.56016676 35.55658013 307.68359375 60.53125 C316.34057143 83.34251463 316.36957178 107.06148343 306.65234375 129.46875 C301.77799222 139.88580386 294.91381173 147.82939791 287 156 C286.31164063 156.71671875 285.62328125 157.4334375 284.9140625 158.171875 C281.77627296 161.37817523 278.53141253 164.22275354 275 167 C276.12535156 167.72703125 276.12535156 167.72703125 277.2734375 168.46875 C300.80934153 183.88269219 319.61380832 203.6537031 326.34375 231.6328125 C331.7174563 259.20504362 325.68026748 287.09058643 310.3515625 310.51953125 C293.3323845 333.55768683 267.2464516 347.33515823 239.17804909 351.56722641 C230.17272846 352.63974767 221.00350876 352.25798995 211.9519043 352.22705078 C209.59742902 352.22643729 207.24295339 352.22670649 204.88847828 352.2277813 C198.61352989 352.2282307 192.33865861 352.21668363 186.06372833 352.20256042 C180.16410595 352.19112577 174.26450181 352.19063175 168.36486816 352.18920898 C151.13906866 352.17873643 133.91328334 352.15081395 116.6875 352.125 C58.9271875 352.063125 58.9271875 352.063125 0 352 C0 235.84 0 119.68 0 0 Z M106 79 C106 96.82 106 114.64 106 133 C119.59469371 133.1165129 119.59469371 133.1165129 133.18945312 133.1953125 C138.74144959 133.21914275 144.29317997 133.24720925 149.8449707 133.30175781 C154.32539456 133.34549987 158.80553274 133.36919646 163.28615379 133.37950897 C164.98804401 133.3868498 166.68992016 133.40118362 168.39168739 133.42292023 C179.5356866 133.55948735 189.97062592 133.53470051 198.9375 125.9375 C203.74471674 120.54093698 206.13629572 113.55370199 206.4375 106.375 C205.8803566 96.88667899 202.07436883 90.30376794 195 84 C188.48795348 79.65464543 182.1804001 78.846381 174.45581055 78.88647461 C173.71380905 78.88632858 172.97180756 78.88618256 172.20732117 78.8860321 C169.7670901 78.88672596 167.3269364 78.8944936 164.88671875 78.90234375 C163.18992657 78.9042098 161.49313385 78.90563282 159.79634094 78.90663147 C155.3395335 78.9104419 150.88275887 78.92025957 146.42596436 78.93133545 C141.07364327 78.94338405 135.72131119 78.94795883 130.36898041 78.95378876 C122.24596415 78.96347213 114.12301982 78.982639 106 79 Z M106 214 C106 233.47 106 252.94 106 273 C121.01657177 273.11648623 121.01657177 273.11648623 136.03320312 273.1953125 C142.16461156 273.2191554 148.29577938 273.24725697 154.42700195 273.30175781 C159.37426058 273.34545541 164.3212609 273.36918737 169.26869774 273.37950897 C171.14921315 273.38685763 173.0297156 273.40120711 174.91012001 273.42292023 C187.01734778 273.55706896 198.37813115 273.37860971 208.43359375 265.625 C215.11147634 258.69732131 217.29668241 251.21435979 217.31689453 241.8359375 C217.20420821 236.04859056 216.14099699 231.82928287 213 227 C212.5875 226.36578125 212.175 225.7315625 211.75 225.078125 C207.1896555 219.0149397 200.34449799 215.57694709 193 214 C190.17790261 213.91031152 187.38127869 213.87377983 184.55957031 213.88647461 C183.71042557 213.88632858 182.86128082 213.88618256 181.98640442 213.8860321 C179.1836185 213.88672799 176.38089929 213.89450524 173.578125 213.90234375 C171.63328081 213.90420908 169.68843614 213.90563244 167.74359131 213.90663147 C162.62752991 213.91044758 157.51149695 213.92027016 152.39544678 213.93133545 C146.25554492 213.94336863 140.11563355 213.94795612 133.97572327 213.95378876 C124.65046241 213.96348238 115.32526393 213.98264529 106 214 Z " fill="#3C69B2" transform="translate(3698,1634)"/>
<path d="M0 0 C28.05 0 56.1 0 85 0 C88.63 4.62 92.26 9.24 96 14 C99.27454269 18.02306556 99.27454269 18.02306556 102.5625 22.03515625 C110.18074968 31.30158494 117.73224316 40.61564328 125.12109375 50.06616211 C128.54383587 54.43751771 132.03610527 58.74680837 135.5625 63.03515625 C142.62398655 71.62436825 149.65384653 80.23777682 156.5 89 C162.5593745 96.75418862 168.77732331 104.37667392 175 112 C181.77721219 120.30268082 188.52057235 128.62404343 195.12207031 137.06738281 C198.5330438 141.42377565 202.01286547 145.71868396 205.52734375 149.9921875 C208.67409516 153.81998937 211.80783314 157.65822428 214.9375 161.5 C215.50581543 162.19528809 216.07413086 162.89057617 216.65966797 163.60693359 C217.19350098 164.26258301 217.72733398 164.91823242 218.27734375 165.59375 C218.75421631 166.17833984 219.23108887 166.76292969 219.72241211 167.36523438 C220.88757295 168.85614151 221.95039878 170.42559817 223 172 C223.33 115.24 223.66 58.48 224 0 C258.98 0 293.96 0 330 0 C330 116.16 330 232.32 330 352 C301.95 352 273.9 352 245 352 C237.86632268 343.22008946 230.77494113 334.46794795 223.8125 325.5625 C220.21549758 320.98449692 216.52594228 316.48222751 212.84472656 311.97192383 C209.26615682 307.57960734 205.73867933 303.15148256 202.25 298.6875 C198.37306673 293.72850347 194.43576991 288.82702555 190.4375 283.96484375 C182.91595501 274.81604143 175.45398396 265.6248003 168.16455078 256.28979492 C164.6626816 251.81602741 161.09207304 247.40155429 157.5 243 C153.4502431 238.03762183 149.44200507 233.048419 145.5 228 C140.41515323 221.48915488 135.21117606 215.07930955 129.9921875 208.67578125 C126.29716699 204.14161123 122.64685561 199.57304116 119 195 C115.04 190.05 111.08 185.1 107 180 C106.67 236.76 106.34 293.52 106 352 C71.02 352 36.04 352 0 352 C0 235.84 0 119.68 0 0 Z " fill="#3C69B2" transform="translate(4801,1634)"/>
<path d="M0 0 C33.556875 -0.061875 67.11375 -0.12375 101.6875 -0.1875 C112.25096436 -0.21481201 122.81442871 -0.24212402 133.69799805 -0.27026367 C146.67932129 -0.28381348 146.67932129 -0.28381348 152.77229309 -0.28633118 C156.99308585 -0.28910613 161.21376337 -0.300268 165.43452454 -0.31672668 C170.84352667 -0.33753453 176.25236486 -0.34343148 181.6614033 -0.33921683 C183.63078631 -0.34009617 185.60017595 -0.34590705 187.56952417 -0.35764539 C226.41370767 -0.57813835 261.00371142 9.53035897 290 36 C290.73605469 36.66515625 291.47210938 37.3303125 292.23046875 38.015625 C314.58421205 59.25391205 327.32690218 90.67609377 328.203125 121.27734375 C328.65229983 153.40323148 320.00111594 180.24246281 298 204 C297.47809082 204.57105469 296.95618164 205.14210938 296.41845703 205.73046875 C275.42573626 228.47415188 275.42573626 228.47415188 263 231 C267.3323706 238.2002779 272.10332836 244.92140427 277.17724609 251.6081543 C280.98188979 256.62623723 284.70123801 261.69790485 288.375 266.8125 C292.87530866 273.07283036 297.41710125 279.29986862 302 285.5 C309.27973499 295.35384607 316.44830669 305.28574813 323.60449219 315.22949219 C325.21465492 317.46610121 326.82591004 319.70191919 328.4375 321.9375 C328.96182617 322.66590088 329.48615234 323.39430176 330.02636719 324.14477539 C332.96335157 328.21504296 335.92997711 332.2608504 338.9296875 336.28515625 C339.57752197 337.15599854 340.22535645 338.02684082 340.89282227 338.92407227 C342.15213857 340.61389121 343.41551735 342.30069183 344.68334961 343.98413086 C345.53038452 345.12120483 345.53038452 345.12120483 346.39453125 346.28125 C347.15020386 347.28768555 347.15020386 347.28768555 347.92114258 348.31445312 C349 350 349 350 349 352 C333.56223964 352.37486306 318.12482221 352.65643415 302.68357468 352.82899475 C295.51243125 352.91127609 288.34412538 353.02328841 281.17480469 353.20703125 C274.92085533 353.36723666 268.66896086 353.46989311 262.41301656 353.50541592 C259.10318269 353.52616967 255.80054763 353.58292538 252.49227142 353.69168091 C232.37106096 354.32656658 232.37106096 354.32656658 226.72671127 350.43107033 C222.95881105 346.73191412 220.33918423 342.55653452 217.96826553 337.86571693 C216.71010726 335.44141584 215.14543386 333.32424163 213.4765625 331.16796875 C212.52471889 329.84209445 211.57417157 328.51528848 210.625 327.1875 C206.1260591 320.92620026 201.58299122 314.70003279 197 308.5 C192.46240325 302.35990393 187.96024242 296.19651711 183.5 290 C176.74163276 280.61164218 169.89398256 271.2892087 163 262 C162.58498734 261.31181183 162.16997467 260.62362366 161.74238586 259.9145813 C160.14515795 257.78682677 160.14515795 257.78682677 157.58918762 257.48101807 C156.63654526 257.47213562 155.68390289 257.46325317 154.70239258 257.45410156 C153.60640747 257.43428223 152.51042236 257.41446289 151.38122559 257.39404297 C150.23061646 257.39291504 149.08000732 257.39178711 147.89453125 257.390625 C146.30674866 257.36718018 146.30674866 257.36718018 144.68688965 257.34326172 C140.72898775 257.29061988 136.77068865 257.27238782 132.8125 257.25 C123.964375 257.1675 115.11625 257.085 106 257 C106 288.35 106 319.7 106 352 C71.02 352 36.04 352 0 352 C0 235.84 0 119.68 0 0 Z M106 91 C106 115.09 106 139.18 106 164 C119.90134917 164.08741731 119.90134917 164.08741731 133.80273438 164.14648438 C139.48177618 164.16434109 145.16067137 164.18534769 150.83959961 164.22631836 C155.42376107 164.25917968 160.00776504 164.27690882 164.59203529 164.28463173 C166.33132718 164.29012761 168.07061154 164.30085807 169.80983543 164.31719017 C184.63537048 164.45073151 198.0935957 163.8707759 209.6875 153.625 C217.37435988 144.89937527 220.64458834 136.77285383 220.28125 124.94921875 C219.21425471 113.76058762 213.90806188 104.64371338 205.27734375 97.50390625 C197.05556497 92.0744297 187.61451797 90.83877058 177.97509766 90.88647461 C177.19393585 90.88632858 176.41277405 90.88618256 175.60794067 90.8860321 C173.0432857 90.88672502 170.47870468 90.89448816 167.9140625 90.90234375 C166.12901855 90.90421014 164.34397409 90.905633 162.55892944 90.90663147 C157.87362235 90.91043925 153.18834654 90.92025462 148.50305176 90.93133545 C142.87454372 90.94339125 137.2460252 90.94796009 131.61750793 90.95378876 C123.07831691 90.96346735 114.53919443 90.98263607 106 91 Z " fill="#3C6AB2" transform="translate(5992,1634)"/>
<path d="M0 0 C244.3452424 0 244.3452424 0 300.6875 54.375 C326.05130813 80.32866414 342.13551613 117.06531881 346 153 C346.10957031 153.88171875 346.21914063 154.7634375 346.33203125 155.671875 C350.29131803 193.0475422 343.02300762 231.0384286 325 264 C324.42378906 265.06734375 323.84757812 266.1346875 323.25390625 267.234375 C317.38729391 277.6940164 310.19374213 286.97176393 302.04296875 295.74609375 C299.95315184 297.99311201 299.95315184 297.99311201 298.046875 300.5234375 C294.31954287 305.03322485 289.57135776 308.38436691 285 312 C284.01773438 312.80953125 283.03546875 313.6190625 282.0234375 314.453125 C273.29165037 321.48276629 263.95092215 326.87153372 254 332 C253.36336426 332.33128906 252.72672852 332.66257812 252.07080078 333.00390625 C224.71868304 347.05852843 194.6373122 352.18077558 164.15771484 352.11352539 C162.33425715 352.11321865 160.51079933 352.11335324 158.68734169 352.11389065 C153.82732257 352.11411536 148.96732834 352.10834152 144.10731506 352.10128021 C139.53809536 352.09556318 134.96888154 352.09531589 130.3996582 352.09460449 C117.0581022 352.08936807 103.71655078 352.07540683 90.375 352.0625 C60.55125 352.041875 30.7275 352.02125 0 352 C0 235.84 0 119.68 0 0 Z M106 96 C106 149.13 106 202.26 106 257 C166.13237736 260.21557293 166.13237736 260.21557293 216 234 C216.69996094 233.32324219 217.39992187 232.64648438 218.12109375 231.94921875 C234.57324152 214.91980263 237.52529559 192.32962978 237.28125 169.66015625 C236.68882169 148.71485345 228.18708689 129.05582201 213 114.5703125 C183.16669617 89.01000792 143.10426633 96 106 96 Z " fill="#3C69B2" transform="translate(5213,1634)"/>
<path d="M0 0 C2.57296698 0.01611462 5.14436425 0.00000847 7.71728516 -0.01904297 C23.62109066 -0.04008636 39.25988526 1.93730941 54.63525391 6.07861328 C56.06973877 6.46206909 56.06973877 6.46206909 57.53320312 6.85327148 C80.36761952 13.2109036 102.68446989 24.4329811 121.07275391 39.39111328 C121.9711499 40.12031982 121.9711499 40.12031982 122.88769531 40.86425781 C160.6534005 71.81661453 186.04142089 115.21343043 191.56884766 164.11767578 C193.3810096 183.73504795 193.15190022 204.0943298 189.07275391 223.39111328 C188.88471191 224.29023437 188.69666992 225.18935547 188.50292969 226.11572266 C181.27493746 259.35183649 165.66750736 289.85407734 142.07275391 314.39111328 C141.58645508 314.90851074 141.10015625 315.4259082 140.59912109 315.95898438 C112.40109714 345.87303487 75.36634057 364.33907449 35.07275391 371.39111328 C33.77982422 371.61798828 32.48689453 371.84486328 31.15478516 372.07861328 C-19.0208482 379.32564558 -71.30664564 366.96701236 -112.09130859 336.79101562 C-117.22723168 332.87487427 -122.09004915 328.66673591 -126.92724609 324.39111328 C-127.82185547 323.63056641 -128.71646484 322.87001953 -129.63818359 322.08642578 C-135.83830803 316.72570281 -140.90216396 310.84946626 -145.92724609 304.39111328 C-146.71873047 303.42689453 -147.51021484 302.46267578 -148.32568359 301.46923828 C-179.15670397 263.14929498 -191.04072466 213.01096488 -186.17724609 164.57861328 C-181.35708293 122.80972446 -163.20501441 86.03607911 -134.26123047 55.78808594 C-133.12365936 54.59680082 -132.00046385 53.39181564 -130.88037109 52.18408203 C-97.92539859 17.60952754 -47.01959792 -0.34816106 0 0 Z M-57.05224609 126.14111328 C-62.28249491 131.38527016 -66.35006833 136.88046584 -69.92724609 143.39111328 C-70.45962891 144.32439453 -70.99201172 145.25767578 -71.54052734 146.21923828 C-76.79328876 155.96878056 -80.464091 167.25609286 -80.92724609 178.39111328 C-80.97880859 179.53708984 -81.03037109 180.68306641 -81.08349609 181.86376953 C-81.84249588 207.24459635 -73.07946878 229.5725105 -55.92724609 248.39111328 C-41.09288331 263.88030363 -21.08962796 272.039613 0.17895508 272.72583008 C23.92231559 273.09636394 44.23451574 264.51675645 61.63525391 248.32861328 C78.34266794 230.84411022 86.6269695 208.13853716 86.42456055 184.14135742 C85.82926415 161.36560573 76.49714798 140.4005083 60.85400391 123.98486328 C26.4373935 91.8884738 -23.79492251 93.74287292 -57.05224609 126.14111328 Z " fill="#3C69B2" transform="translate(3061.92724609375,1622.60888671875)"/>
<path d="M0 0 C98.34 0 196.68 0 298 0 C298 29.37 298 58.74 298 89 C234.64 89 171.28 89 106 89 C106 103.19 106 117.38 106 132 C156.82 132 207.64 132 260 132 C260 161.37 260 190.74 260 221 C209.18 221 158.36 221 106 221 C106 235.19 106 249.38 106 264 C169.36 264 232.72 264 298 264 C298 293.04 298 322.08 298 352 C199.66 352 101.32 352 0 352 C0 235.84 0 119.68 0 0 Z " fill="#3C69B2" transform="translate(5618,1634)"/>
<path d="M0 0 C40.92 0 81.84 0 124 0 C130.79192413 16.67108649 137.52755006 33.33251775 144 50.125 C144.81329579 52.22926801 145.62686081 54.33343197 146.44067383 56.4375 C148.12247471 60.7863769 149.80315077 65.13568574 151.48291016 69.48535156 C155.54192743 79.99379002 159.61488701 90.49682508 163.6875 101 C164.08348389 102.02152161 164.47946777 103.04304321 164.88745117 104.09552002 C170.56216168 118.73415422 176.25797988 133.3644004 181.97207642 147.98770142 C187.46447638 162.04474324 192.924239 176.11426548 198.375 190.1875 C204.55266217 206.13710051 210.75883896 222.07514089 217 238 C224.03902568 255.96067933 231.02847939 273.94015197 237.9934082 291.9296875 C241.89886804 302.01490209 245.81387045 312.09620484 249.75390625 322.16796875 C250.13166199 323.13394485 250.50941772 324.09992096 250.89862061 325.09516907 C252.68936006 329.67349488 254.48209302 334.25102546 256.27783203 338.82739258 C256.9079312 340.43699074 257.53797987 342.04660867 258.16796875 343.65625 C258.60237022 344.76017342 258.60237022 344.76017342 259.04554749 345.88639832 C261 350.88661605 261 350.88661605 261 352 C225.03 352 189.06 352 152 352 C141.45730149 323.88613732 141.45730149 323.88613732 136.7668457 310.49121094 C135.90935847 308.04470925 135.0456191 305.60046599 134.18164062 303.15625 C133.62984398 301.58606549 133.07839647 300.01575824 132.52734375 298.4453125 C132.14315529 297.35973557 132.14315529 297.35973557 131.75120544 296.25222778 C130 291.22968255 130 291.22968255 130 289 C85.45 289.33 40.9 289.66 -5 290 C-10.94 306.17 -16.88 322.34 -23 339 C-24.65 343.29 -26.3 347.58 -28 352 C-63.97 352 -99.94 352 -137 352 C-132.82988602 340.87969606 -128.63813815 329.77180271 -124.375 318.6875 C-124.06174774 317.87263123 -123.74849548 317.05776245 -123.42575073 316.21820068 C-115.59962051 295.87206072 -107.6195951 275.58636594 -99.64877319 255.29660034 C-95.70936733 245.2660026 -91.78932996 235.22790494 -87.875 225.1875 C-82.26030411 210.78762295 -76.63411255 196.39229134 -71 182 C-63.30937478 162.35329184 -55.63474564 142.70038252 -47.96777344 123.04443359 C-44.97992179 115.38465159 -41.9906262 107.72543308 -39.00146484 100.06616211 C-38.00223048 97.50571541 -37.00305792 94.9452446 -36.00390625 92.38476562 C-32.98659176 84.65249354 -29.96904472 76.92031257 -26.95037842 69.18856812 C-25.58512653 65.69167659 -24.22004898 62.19471702 -22.85498047 58.69775391 C-22.22941429 57.09534447 -21.60377112 55.49296509 -20.97802734 53.890625 C-13.96592537 35.93462128 -6.98674687 17.96592051 0 0 Z M62 103 C56.89314772 114.55259141 52.80312748 126.48610986 48.5625 138.375 C46.96444577 142.84323995 45.36378108 147.31053941 43.76171875 151.77734375 C43.36225037 152.89144119 42.96278198 154.00553864 42.5512085 155.15339661 C39.97439631 162.32617804 37.35965957 169.4838303 34.70703125 176.62890625 C34.37749954 177.51723145 34.04796783 178.40555664 33.70845032 179.32080078 C32.16758469 183.47028599 30.62011505 187.61717935 29.06469727 191.76123047 C28.51956919 193.22488842 27.97455853 194.68859009 27.4296875 196.15234375 C27.05605827 197.13781944 27.05605827 197.13781944 26.67488098 198.14320374 C25.64256204 200.92725325 25 203.00040101 25 206 C49.75 206 74.5 206 100 206 C93.41268193 186.89677759 86.74741094 167.85055528 79.8125 148.875 C78.95355447 146.51830991 78.09483037 144.16153911 77.23632812 141.8046875 C72.5184075 128.85963228 67.77418944 115.92440582 63 103 C62.67 103 62.34 103 62 103 Z " fill="#3C69B2" transform="translate(4497,1634)"/>
<path d="M0 0 C34.98 0 69.96 0 106 0 C106 83.82 106 167.64 106 254 C157.48 254 208.96 254 262 254 C262 286.34 262 318.68 262 352 C175.54 352 89.08 352 0 352 C0 235.84 0 119.68 0 0 Z " fill="#3C6AB2" transform="translate(4085,1634)"/>
<path d="M0 0 C34.98 0 69.96 0 106 0 C106.1209091 55.74805255 106.1209091 55.74805255 106.14648438 79.21289062 C106.15237405 84.57332383 106.15841759 89.9337568 106.16479492 95.29418945 C106.16598179 96.30172908 106.16598179 96.30172908 106.16719264 97.32962304 C106.18018309 108.12427715 106.20380223 118.91888253 106.23145839 129.7135079 C106.25967409 140.82050839 106.27598607 151.92748228 106.28226548 163.03451675 C106.28615277 169.26103633 106.29519205 175.48744602 106.31719017 181.71393013 C106.33779042 187.5932594 106.34378704 193.47243516 106.33932304 199.3517971 C106.34013785 201.49168359 106.34596151 203.63157607 106.35761642 205.77143097 C106.5847848 249.69253264 96.07693152 290.77576769 65.25 323.1875 C32.80015674 354.40895802 -11.4078999 363.92275391 -55.1328125 363.2421875 C-102.94881465 361.90846305 -147.2241105 337.83500351 -180.1796875 304.0234375 C-183.64523889 300.17117222 -186.8385753 296.10312567 -190 292 C-188.56260763 288.53910328 -186.86180917 286.83464538 -183.87890625 284.6015625 C-182.61409424 283.64612549 -182.61409424 283.64612549 -181.32373047 282.67138672 C-179.95692139 281.65842529 -179.95692139 281.65842529 -178.5625 280.625 C-177.62035645 279.91746582 -176.67821289 279.20993164 -175.70751953 278.48095703 C-172.81197059 276.31111444 -169.90761424 274.15364047 -167 272 C-166.16033691 271.37673828 -165.32067383 270.75347656 -164.45556641 270.11132812 C-159.76681453 266.6345115 -155.06473803 263.17619006 -150.35595703 259.7265625 C-146.3374047 256.78156747 -142.32444469 253.82898784 -138.3125 250.875 C-137.53463135 250.30233398 -136.7567627 249.72966797 -135.95532227 249.13964844 C-128.26834641 243.4732721 -120.6283603 237.74494445 -113 232 C-109.08677498 235.27710197 -105.35623749 238.57052205 -101.875 242.3125 C-89.17123814 255.08074796 -72.66219734 263.88831841 -54.41015625 264.02734375 C-38.7104628 263.39546754 -24.64246192 259.32161091 -13.625 247.6875 C-3.76429877 235.76996538 -0.85991458 221.12671943 -0.84178162 205.99598694 C-0.83684364 205.11204221 -0.83190566 204.22809748 -0.82681805 203.31736654 C-0.81151151 200.36791088 -0.80310105 197.41847688 -0.79467773 194.46899414 C-0.78509383 192.34976004 -0.77508345 190.23052784 -0.76467896 188.11129761 C-0.7376794 182.36603971 -0.71664306 176.62077364 -0.69667697 170.87548757 C-0.67478686 164.86834686 -0.64741298 158.8612312 -0.62062073 152.85411072 C-0.57073473 141.48229045 -0.52578072 130.11045626 -0.48259836 118.73860878 C-0.42395156 103.36933786 -0.35768668 88.0000999 -0.29184818 72.63085842 C-0.18833753 48.4205945 -0.09500578 24.21030224 0 0 Z " fill="#3C69B2" transform="translate(2718,1633)"/>
</svg>
