<svg width="42" height="30" viewBox="0 0 42 30" fill="none" xmlns="http://www.w3.org/2000/svg">
<g opacity="0.1">
<path fill-rule="evenodd" clip-rule="evenodd" d="M8.86682 8.22772C7.34716 6.09869 4.47477 3.80674 0.564303 1.89871C-0.45193 1.40286 0.00649488 -0.133995 1.12831 0.00790405C9.34459 1.0472 14.67 4.64561 17.5781 9.99689C18.6598 11.9872 19.3393 14.1056 19.7012 16.2682C19.9398 17.694 20.0028 18.7641 20.0028 20C20.0028 25.5228 15.5257 30 10.0028 30C4.47997 30 0.00281736 25.5228 0.00281736 20C0.00281736 14.4772 4.5514 9.99689 9.77845 9.99689C9.5027 9.23974 9.43646 9.02577 8.86682 8.22772ZM30.8668 8.22772C29.3472 6.09869 26.4748 3.80674 22.5643 1.89871C21.5481 1.40286 22.0065 -0.133995 23.1283 0.00790405C31.3446 1.0472 36.67 4.64561 39.5781 9.99689C40.6598 11.9872 41.3393 14.1056 41.7012 16.2682C41.9398 17.694 42.0028 18.7641 42.0028 20C42.0028 25.5228 37.5257 30 32.0028 30C26.48 30 22.0028 25.5228 22.0028 20C22.0028 14.4772 26.5514 9.99689 31.7784 9.99689C31.5027 9.23974 31.4365 9.02577 30.8668 8.22772Z" fill="#E24C4A"/>
</g>
</svg>
